<svg width="12" height="12" viewBox="0 0 12 12" fill="none" xmlns="http://www.w3.org/2000/svg">
<path d="M6 1C3.24 1 1 3.24 1 6C1 8.76 3.24 11 6 11C8.76 11 11 8.76 11 6C11 3.24 8.76 1 6 1ZM4.5 4C4.775 4 5 4.225 5 4.5C5 4.775 4.78 5 4.5 5C4.225 5 4 4.775 4 4.5C4 4.225 4.225 4 4.5 4ZM4.765 7.765C4.69 7.84 4.595 7.875 4.5 7.875C4.405 7.875 4.31 7.84 4.235 7.765C4.09 7.62 4.09 7.38 4.235 7.235L7.235 4.235C7.38 4.09 7.62 4.09 7.765 4.235C7.91 4.38 7.91 4.62 7.765 4.765L4.765 7.765ZM7.5 8C7.22 8 6.995 7.775 6.995 7.5C6.995 7.225 7.22 7 7.495 7C7.77 7 7.995 7.225 7.995 7.5C7.995 7.775 7.775 8 7.5 8Z" fill="#C01048"/>
</svg>
