<svg width="20" height="19" viewBox="0 0 20 19" fill="none" xmlns="http://www.w3.org/2000/svg">
<path d="M10.8342 0.557434C10.6657 0.216099 10.3181 0 9.93746 0C9.55682 0 9.20918 0.216099 9.04072 0.557434L6.51158 5.68205L0.856231 6.50382C0.479545 6.55855 0.166598 6.82239 0.0489726 7.18441C-0.0686523 7.54642 0.0294447 7.94382 0.302017 8.20951L4.39426 12.1985L3.42821 17.831C3.36387 18.2061 3.51809 18.5853 3.82604 18.809C4.13398 19.0328 4.54225 19.0623 4.87916 18.8851L9.93746 16.2258L14.9958 18.8851C15.3327 19.0623 15.7409 19.0328 16.0489 18.809C16.3568 18.5853 16.511 18.2061 16.4467 17.831L15.4807 12.1985L19.5729 8.20951C19.8455 7.94382 19.9436 7.54642 19.8259 7.18441C19.7083 6.82239 19.3954 6.55855 19.0187 6.50382L13.3633 5.68205L10.8342 0.557434Z" fill="#FFC400"/>
</svg>
