<svg width="346" height="113" viewBox="0 0 346 113" fill="none" xmlns="http://www.w3.org/2000/svg" xmlns:xlink="http://www.w3.org/1999/xlink">
<rect y="43.8163" width="64.7449" height="69.1837" rx="5.5102" fill="#FDAF37" fill-opacity="0.3"/>
<rect y="43.8163" width="64.7449" height="69.1837" rx="5.5102" fill="url(#pattern0_1_15489)" fill-opacity="0.6"/>
<path d="M70.2549 33.1837C70.2549 30.1405 72.7219 27.6735 75.7651 27.6735H129.49C132.533 27.6735 135 30.1405 135 33.1837V107.49C135 110.533 132.533 113 129.49 113H75.7651C72.7219 113 70.2549 110.533 70.2549 107.49V33.1837Z" fill="#FDAF37" fill-opacity="0.3"/>
<path d="M70.2549 33.1837C70.2549 30.1405 72.7219 27.6735 75.7651 27.6735H129.49C132.533 27.6735 135 30.1405 135 33.1837V107.49C135 110.533 132.533 113 129.49 113H75.7651C72.7219 113 70.2549 110.533 70.2549 107.49V33.1837Z" fill="url(#pattern1_1_15489)" fill-opacity="0.6"/>
<path d="M210.765 19.347C210.765 16.3038 213.232 13.8368 216.275 13.8368H270C273.043 13.8368 275.51 16.3038 275.51 19.347V107.49C275.51 110.533 273.043 113 270 113H216.275C213.232 113 210.765 110.533 210.765 107.49V19.347Z" fill="#FDAF37" fill-opacity="0.3"/>
<path d="M210.765 19.347C210.765 16.3038 213.232 13.8368 216.275 13.8368H270C273.043 13.8368 275.51 16.3038 275.51 19.347V107.49C275.51 110.533 273.043 113 270 113H216.275C213.232 113 210.765 110.533 210.765 107.49V19.347Z" fill="url(#pattern2_1_15489)" fill-opacity="0.6"/>
<rect x="140.51" width="64.7449" height="113" rx="5.5102" fill="#FDAF37"/>
<path d="M281.021 66.6224C281.021 63.5792 283.488 61.1122 286.531 61.1122H340.255C343.298 61.1122 345.765 63.5792 345.765 66.6224V107.49C345.765 110.533 343.298 113 340.255 113H286.531C283.488 113 281.021 110.533 281.021 107.49V66.6224Z" fill="#FDAF37" fill-opacity="0.3"/>
<path d="M281.021 66.6224C281.021 63.5792 283.488 61.1122 286.531 61.1122H340.255C343.298 61.1122 345.765 63.5792 345.765 66.6224V107.49C345.765 110.533 343.298 113 340.255 113H286.531C283.488 113 281.021 110.533 281.021 107.49V66.6224Z" fill="url(#pattern3_1_15489)" fill-opacity="0.6"/>
<defs>
<pattern id="pattern0_1_15489" patternUnits="userSpaceOnUse" patternTransform="matrix(18.62 0 0 18.62 -0.134336 43.6819)" preserveAspectRatio="none" viewBox="-0.353516 -0.353516 49 49" width="1" height="1">
<use xlink:href="#pattern0_1_15489_inner" transform="translate(-49 -49)"/>
<use xlink:href="#pattern0_1_15489_inner" transform="translate(0 -49)"/>
<use xlink:href="#pattern0_1_15489_inner" transform="translate(-49 0)"/>
<g id="pattern0_1_15489_inner">
<path d="M0 49L49 0" stroke="black" stroke-opacity="0.21"/>
</g>
</pattern><pattern id="pattern1_1_15489" patternUnits="userSpaceOnUse" patternTransform="matrix(18.62 0 0 18.62 70.1205 27.5391)" preserveAspectRatio="none" viewBox="-0.353516 -0.353516 49 49" width="1" height="1">
<use xlink:href="#pattern1_1_15489_inner" transform="translate(-49 -49)"/>
<use xlink:href="#pattern1_1_15489_inner" transform="translate(0 -49)"/>
<use xlink:href="#pattern1_1_15489_inner" transform="translate(-49 0)"/>
<g id="pattern1_1_15489_inner">
<path d="M0 49L49 0" stroke="black" stroke-opacity="0.21"/>
</g>
</pattern><pattern id="pattern2_1_15489" patternUnits="userSpaceOnUse" patternTransform="matrix(18.62 0 0 18.62 210.631 13.7025)" preserveAspectRatio="none" viewBox="-0.353516 -0.353516 49 49" width="1" height="1">
<use xlink:href="#pattern2_1_15489_inner" transform="translate(-49 -49)"/>
<use xlink:href="#pattern2_1_15489_inner" transform="translate(0 -49)"/>
<use xlink:href="#pattern2_1_15489_inner" transform="translate(-49 0)"/>
<g id="pattern2_1_15489_inner">
<path d="M0 49L49 0" stroke="black" stroke-opacity="0.21"/>
</g>
</pattern><pattern id="pattern3_1_15489" patternUnits="userSpaceOnUse" patternTransform="matrix(18.62 0 0 18.62 280.886 60.9778)" preserveAspectRatio="none" viewBox="-0.353516 -0.353516 49 49" width="1" height="1">
<use xlink:href="#pattern3_1_15489_inner" transform="translate(-49 -49)"/>
<use xlink:href="#pattern3_1_15489_inner" transform="translate(0 -49)"/>
<use xlink:href="#pattern3_1_15489_inner" transform="translate(-49 0)"/>
<g id="pattern3_1_15489_inner">
<path d="M0 49L49 0" stroke="black" stroke-opacity="0.21"/>
</g>
</pattern></defs>
</svg>
