<svg width="20" height="23" viewBox="0 0 20 23" fill="none" xmlns="http://www.w3.org/2000/svg">
<path d="M6.37567 5.08159C6.37357 5.11922 6.34309 5.26847 6.33425 5.33217C6.31236 5.25562 6.38375 4.94528 6.37567 5.08159ZM6.36732 12.5737C6.39427 12.5157 6.42074 12.4576 6.44675 12.3994C6.34811 12.5495 6.22145 12.7554 6.12021 12.8886C6.10366 12.9104 6.12349 12.838 6.08606 12.8908C6.04845 12.9435 6.08323 12.9523 6.03192 13.0317C5.97609 13.1222 5.66738 13.4979 5.55936 13.6282C5.1656 14.1212 4.73286 14.6033 4.23551 15.0136C4.71407 14.554 4.2024 14.9833 4.06442 15.1069C4.0322 15.1316 4.08715 15.1909 3.53791 15.5744C3.18028 15.8079 3.46185 15.5232 2.88772 15.9368C3.38273 15.6997 2.93166 15.9912 2.55321 16.1976C2.49165 16.2362 1.94968 16.499 1.70805 16.598C1.62553 16.634 1.50964 16.7163 1.39629 16.7603C1.31903 16.7902 1.25608 16.7948 1.14156 16.836C0.983017 16.8928 0.822434 16.9455 0.659418 16.9941L0.197891 14.6008C0.572871 14.5638 0.9246 14.5393 1.3054 14.526C0.9988 14.6243 1.55048 14.5504 1.57421 14.5552C1.70078 14.5727 1.13232 14.602 1.35807 14.6069C1.67094 14.5908 1.98624 14.5814 2.30188 14.5794C2.04517 14.5686 2.63914 14.5095 2.75572 14.5421C2.714 14.4553 4.18892 14.6764 4.42205 14.6941C4.46942 14.6958 4.16634 14.6175 4.87828 14.7257C4.9563 14.7384 4.92356 14.7564 4.96476 14.7601C4.98922 14.7623 5.14825 14.7134 5.29784 14.7775C5.35349 14.8032 4.97787 14.7799 5.78496 14.9063C5.48174 14.7668 6.89741 15.0971 7.15197 15.2056C7.10306 15.1819 7.05381 15.1583 7.00424 15.1349C7.25441 15.23 7.30503 15.2209 7.36191 15.2386C7.59646 15.3126 7.89925 15.4361 8.1157 15.5099C8.36679 15.5961 8.37977 15.5523 8.66315 15.6802C8.59784 15.644 8.5326 15.6085 8.46849 15.5739C8.66554 15.6502 8.86742 15.7331 9.06017 15.8172C8.58474 15.6845 9.15515 15.8585 9.19438 15.8763C9.25364 15.8998 9.16018 15.8855 9.25876 15.9253C9.26886 15.9294 9.2642 15.9016 9.41392 15.9661C9.72368 16.1021 9.66329 16.1079 9.7928 16.1696C9.80438 16.1755 9.77342 16.1357 9.99623 16.2419C10.702 16.5916 9.98456 16.2508 9.95755 16.2433C9.91946 16.2305 10.1255 16.4213 9.53811 16.1063C9.73494 16.2094 9.73968 16.2557 9.76153 16.2671C9.78298 16.2771 10.125 16.4442 10.1459 16.4551C10.3211 16.5331 10.1846 16.4313 10.2197 16.4446C10.2513 16.4551 10.6379 16.7069 10.774 16.698C10.9309 16.8755 10.6292 16.6842 10.2978 16.5188C10.2444 16.5057 10.5925 16.7141 10.612 16.7269C11.0703 16.9947 10.8464 16.7957 10.966 16.8221C11.0278 16.8359 11.1913 16.9851 11.0489 16.8343C11.4649 17.0875 11.1976 16.9574 11.2221 16.9777C11.2588 17.0086 11.4087 17.0876 11.4248 17.101C11.4489 17.1205 11.3494 17.077 11.4471 17.1493C11.4628 17.1608 11.6447 17.2439 11.4421 17.0907C11.723 17.2834 11.7155 17.2487 11.7786 17.3588C12.0287 17.4095 11.8805 17.5068 11.952 17.5658C12.141 17.7244 12.1315 17.6174 12.1446 17.6219C12.2324 17.6511 12.7482 18.0998 12.8824 18.2076C12.7942 18.2056 12.4687 17.8595 12.3749 17.803C12.0729 17.6117 12.7459 18.138 12.4988 18.0342C12.5933 18.0854 12.6889 18.1391 12.7844 18.1945C12.9022 18.3607 12.6799 18.1871 13.0854 18.5299C13.1775 18.5575 12.8024 18.2833 12.8927 18.3218C12.9449 18.3412 13.1783 18.5486 13.1883 18.5456C13.2019 18.5409 12.9843 18.3614 13.0291 18.3777C13.1351 18.4089 13.8383 19.1506 13.2656 18.6232C13.4215 18.7709 13.4479 18.909 13.5931 19.0229C13.6886 19.1028 13.2956 18.5217 13.9879 19.2924C13.9744 19.3306 13.7019 18.9974 13.6885 18.9904C13.6745 18.9817 13.6688 19.0973 13.675 19.11C13.7047 19.1454 14.4291 19.9092 14.522 20.1293C14.511 20.0196 14.9969 20.7895 15.0523 20.8789C15.0699 20.9004 15.0428 20.7972 15.0606 20.8207C15.1287 20.9106 15.2319 21.1205 15.3148 21.3192L13.1959 21.8643C13.2001 21.7504 13.2046 21.6391 13.2029 21.5611C13.198 21.3309 13.1737 21.366 13.1733 21.3521C13.1727 21.2542 13.1918 21.3321 13.1905 21.2721C13.1869 21.1793 13.1864 20.5544 13.1842 20.521C13.1831 20.5119 13.1534 20.6124 13.1483 20.478C13.1478 20.4537 13.1807 20.4732 13.1714 20.0647C13.1618 19.5814 13.1226 20.4028 13.0896 20.2009C13.146 19.886 13.0952 19.8993 13.101 19.8136C13.1031 19.7846 13.152 19.5646 13.158 19.3297C13.1589 19.4991 13.1609 19.6701 13.1642 19.8408C13.1753 19.6724 13.1762 19.3494 13.1908 19.2111C13.1978 19.1438 13.2313 19.2007 13.2367 19.0542C13.2379 19.0245 13.1549 18.8946 13.1785 19.2817C13.146 19.3114 13.1735 19.1288 13.1686 19.0439C13.1678 19.0312 13.1177 18.979 13.1555 18.873C13.1657 18.8472 13.2999 19.1374 13.2321 18.4048C13.23 18.3813 13.2058 18.4611 13.2033 18.438C13.2015 18.4224 13.2213 18.2377 13.2201 18.2169C13.2186 18.1957 13.1917 18.284 13.1893 18.2587C13.1769 18.129 13.2715 17.9663 13.2466 18.2304C13.2628 18.1431 13.2795 18.0541 13.2963 17.9678C13.2271 18.0569 13.2891 17.8288 13.2977 17.7066C13.3555 16.9238 13.2683 17.4434 13.2596 17.307C13.2475 17.0872 13.3363 17.2633 13.3384 16.9384C13.3395 16.9084 13.2486 17.2919 13.3617 16.5364C13.3498 16.6486 13.3386 16.7608 13.328 16.8728C13.3945 16.8151 13.3707 16.4683 13.3737 16.4418C13.404 16.1427 13.3975 16.3472 13.429 15.9003C13.4319 15.8604 13.4593 15.7761 13.4649 15.6904C13.4881 15.3347 13.3769 16.1508 13.3527 16.1696C13.3361 16.1788 13.4709 15.3025 13.4854 15.2735C13.5311 15.1502 13.4311 15.6722 13.4786 15.5771C13.4877 15.5435 13.693 14.2905 13.7734 14.0417C13.854 13.7555 13.9679 13.6464 13.8791 13.6215C13.9873 13.5618 13.9466 13.4747 13.9571 13.4378C14.0866 12.9955 14.0894 12.9924 14.2029 12.6077C14.229 12.5218 14.2792 12.4594 14.285 12.4281C14.2884 12.4099 14.2494 12.4328 14.2704 12.3448C14.2926 12.2236 14.6045 11.5202 14.6497 11.4752C14.6868 11.4284 14.5266 11.7785 14.5786 11.7256C14.6882 11.4695 14.7927 11.2262 14.9272 10.9734C14.983 10.8699 14.9714 10.9321 14.9955 10.8876C15.003 10.8683 15.1978 10.4975 15.1846 10.5107C15.1245 10.533 14.5757 11.6684 14.6942 11.3571C14.7131 11.299 14.8521 11.111 14.7894 11.1211C15.2954 10.1411 16.0299 9.03865 17.3647 8.47879C16.625 8.8215 15.9643 9.38898 15.5351 9.97399C15.4722 10.0542 15.2844 10.3222 15.3291 10.3046C15.657 9.80759 16.1842 9.18832 16.7612 8.84346C16.7792 8.83244 16.7274 8.89445 16.7955 8.85465C16.9146 8.77535 17.3412 8.51839 17.4273 8.50349C17.4397 8.49849 17.1954 8.64075 17.2819 8.62409C17.4995 8.58287 17.5099 8.45954 17.6945 8.40063C17.8056 8.35518 18.4346 8.25081 18.814 8.26436L18.3773 10.2802C18.3111 10.2508 18.2564 10.2302 18.2212 10.2227C18.136 10.2051 18.2374 10.2548 18.3611 10.3159L18.814 8.22515C18.6045 8.21874 18.3691 8.24231 18.4041 8.22317C18.5384 8.20275 18.6756 8.19198 18.814 8.19019L18.3466 10.3477C18.0141 10.2043 17.7055 10.0569 17.4011 9.94982C17.3942 9.94743 17.4463 9.99127 17.3574 9.9627C17.2042 9.91417 17.1777 9.87072 17.1083 9.84185C17.0321 9.80937 16.7473 9.72734 16.7173 9.70711C16.7131 9.70419 16.7774 9.68839 16.7863 9.69007C16.9102 9.71253 16.9425 9.76827 16.9533 9.77211C16.9949 9.78687 17.0422 9.78475 17.0811 9.79849C17.1408 9.81981 17.1692 9.84527 17.2503 9.87464C17.3066 9.89524 17.2614 9.84851 17.3159 9.869C17.3362 9.87614 17.5325 10.019 17.5733 9.96214C17.5901 9.90675 15.8164 9.36633 15.6 9.38727C15.7663 9.42564 15.9164 9.4636 16.0755 9.50694C15.7587 9.41566 15.3535 9.4045 15.3326 9.31925C14.7184 9.2081 13.9485 9.1304 13.1605 8.77248C12.3777 8.41813 11.7721 7.87054 11.276 7.33481C11.0957 7.12697 11.2398 7.21472 10.9479 6.89873C11.0076 6.99485 11.0667 7.08807 11.1255 7.17861C10.9817 7.01457 10.4049 6.254 10.3185 6.14551C10.3057 6.13027 10.2519 6.13845 10.1072 5.94686C9.98894 5.78965 9.99817 5.74126 9.94077 5.64861C9.89236 5.5705 9.82438 5.48889 9.80991 5.46459C9.79895 5.44606 9.81141 5.42638 9.78529 5.38194C9.70936 5.25107 9.72898 5.38664 9.70082 5.22235C9.72389 5.25152 9.74685 5.28042 9.76972 5.30906C9.67483 5.15323 9.55619 4.91997 9.7241 5.14088C9.75276 5.1783 9.71288 5.15657 9.73261 5.18552C10.5444 6.34057 9.91321 5.38036 9.62674 5.00752C9.57469 4.87787 9.18529 4.31507 9.17547 4.28627C9.16507 4.25375 9.25168 4.34336 9.18316 4.19697C9.15784 4.15253 8.66454 3.39585 8.8734 3.65301C8.91982 3.71235 9.13691 4.07401 9.20453 4.17664C9.11753 3.92103 8.73485 3.48285 8.69644 3.41487C8.5594 3.1732 9.02394 3.83799 8.70248 3.30229C8.47293 2.91602 8.65621 3.29923 8.54987 3.16087C8.49132 3.08595 8.25783 2.6056 8.211 2.64766C8.10922 2.49045 8.19368 2.5675 8.18386 2.54648C8.17421 2.52656 7.98338 2.24212 7.9356 2.135C7.92994 2.12221 7.97999 2.14345 7.97497 2.12974C7.96518 2.10456 7.78451 1.80984 7.77455 1.79795C7.76839 1.79121 7.78616 1.87752 7.76291 1.85138C7.73441 1.81865 7.57466 1.53143 7.56044 1.52281C7.53576 1.50498 7.74635 1.85014 7.68593 1.80921C7.59213 1.63319 7.43261 1.40022 7.3471 1.30298C7.36856 1.32563 7.45896 1.47972 7.48736 1.53365C7.43339 1.53328 7.24085 1.19894 7.33863 1.29485C7.27947 1.23174 7.29918 1.2868 7.25931 1.25487C7.24905 1.24653 7.18789 1.1423 7.16919 1.12584C7.16634 1.12411 7.21353 1.2411 7.19289 1.2241C7.15614 1.19464 6.97405 0.869598 6.96205 0.839369C6.92994 0.757811 7.09577 1.01681 7.12494 1.0282C7.12954 1.0303 7.03356 0.78573 7.0343 0.780084C7.05845 0.749359 7.17952 1.01333 7.19128 0.968075C7.16195 0.903099 7.1324 0.837626 7.10263 0.77166C7.27033 0.998846 7.50179 1.43341 7.59585 1.51994C7.39305 1.19358 7.18102 0.820454 7.25493 0.77897C7.28616 0.761742 7.39154 0.903454 7.39595 0.892857C7.41154 0.854925 7.25935 0.660172 7.25611 0.65095C7.25411 0.643449 7.25408 0.639517 7.25571 0.638585C7.25571 0.638585 7.25571 0.638584 7.25571 0.638584C7.27264 0.630111 7.45748 0.925121 7.47311 0.934674C7.50091 0.952115 7.47967 0.787753 7.49189 0.780802C7.49723 0.784538 7.63183 0.988466 7.61205 0.904942C7.59229 0.821105 7.48522 0.633224 7.48352 0.625016C7.47614 0.582515 7.67537 0.902638 7.68794 0.906686C7.69481 0.909833 7.61836 0.722371 7.62206 0.713061C7.62641 0.704936 7.71748 0.829181 7.76854 0.868252C7.80666 0.897636 7.75421 0.778297 7.76806 0.796583C7.77832 0.810826 7.95139 1.11127 7.96215 1.12316C7.97884 1.14244 7.95768 1.06209 7.96827 1.06943C7.98346 1.07994 8.03178 1.17909 8.03161 1.16259C8.03213 1.1518 7.88121 0.739193 7.8995 0.730109C7.93233 0.718238 8.09346 1.15624 7.99717 0.716955C7.99648 0.713988 7.93549 0.627344 7.93471 0.624276C7.92378 0.554974 8.12664 0.830896 7.91342 0.473041C8.33492 1.11889 8.00667 0.531523 8.1137 0.601167C8.1553 0.628911 8.30976 0.878006 8.31303 0.876816C8.32345 0.838337 8.25797 0.76893 8.25407 0.734389C8.25229 0.715902 8.40839 0.925969 8.39587 0.865508C8.38978 0.835175 8.24762 0.596085 8.24322 0.58438C8.20357 0.478553 8.28899 0.587167 8.2881 0.55939C8.28772 0.541202 8.20311 0.392599 8.20215 0.387688C8.20157 0.380161 8.34794 0.563645 8.3823 0.598166C8.40874 0.624844 8.35368 0.499219 8.36995 0.519063C8.46835 0.639985 8.57263 0.94723 8.49569 0.635833C8.49103 0.616842 8.43016 0.515728 8.42931 0.512047C8.41475 0.436059 8.52542 0.623699 8.56243 0.646176C8.62652 0.685707 8.45416 0.427142 8.60487 0.637804C8.52849 0.458922 8.47331 0.365115 8.35122 0.165161C8.68723 0.713929 8.87518 0.853149 8.52319 0.247276C8.63452 0.443876 8.66682 0.395102 8.70087 0.452367C8.72231 0.488707 8.83611 0.788674 8.86413 0.604745C8.86775 0.582057 8.75465 0.423332 8.81084 0.461048C9.03609 0.865315 8.83252 0.460865 8.83536 0.457756C8.89276 0.422581 9.4293 1.4529 9.53054 1.60389C9.65107 1.78871 9.8099 1.9475 9.83402 1.98727C9.91846 2.12696 9.82495 2.02529 9.83518 2.06172C9.84765 2.10237 10.1237 2.45406 10.1366 2.47977C10.1753 2.56484 10.0983 2.50176 10.102 2.5108C10.1498 2.62808 10.4881 3.12171 10.5806 3.27876C10.5928 3.25923 10.4117 2.97028 10.5528 3.12956C10.7268 3.32971 10.6551 3.38895 10.6555 3.3975C11.2811 4.36304 11.933 5.32029 12.6602 6.0998C12.6817 6.06018 12.1893 5.54809 12.1905 5.5309C12.1496 5.43886 12.935 6.33518 13.0334 6.41464C12.9674 6.33991 12.893 6.25299 12.8282 6.17181C12.9981 6.26681 13.2305 6.58082 13.4414 6.69797C13.5074 6.73555 13.4027 6.63269 13.4057 6.63237C13.489 6.66803 13.5854 6.75358 13.4881 6.72261C13.6738 6.81426 13.6307 6.8221 13.7626 6.90059C13.7692 6.90408 13.7235 6.8539 13.8331 6.90164C13.8808 6.92654 14.1524 7.04215 14.2 7.03319C14.2167 7.03085 14.1093 6.89612 14.0654 6.9597C13.7929 6.79701 13.9585 6.95089 13.8483 6.89565C13.8329 6.88389 13.8859 6.87835 13.6083 6.72867C13.7019 6.70481 13.9773 6.91877 14.0429 6.93C14.1592 6.96496 13.7248 6.71671 13.6128 6.69852C13.6848 6.67326 13.5851 6.67278 13.4887 6.59915C13.381 6.51541 13.4369 6.53456 13.3805 6.49031C13.2252 6.36246 13.2583 6.44556 13.1538 6.30139C13.2024 6.50748 12.913 6.10112 12.8422 5.97311C13.0044 6.13545 13.1778 6.29352 13.3502 6.42747C13.3447 6.41494 13.3393 6.40233 13.3339 6.38964C13.3776 6.42742 13.4159 6.45943 13.4618 6.49589C13.451 6.49509 13.4401 6.49419 13.4291 6.4932C13.68 6.63612 13.7086 6.69301 13.7276 6.7077C13.9635 6.85965 14.2399 6.97018 14.5492 7.0444C14.599 7.05461 14.5587 7.01373 14.9255 7.11455C15.047 7.14613 14.924 7.15514 15.0667 7.17529C15.2634 7.12529 15.2499 7.18884 15.3052 7.19805C15.467 7.22416 15.5739 7.22095 15.5886 7.22318C15.7964 7.25362 16.1134 7.31239 16.3481 7.35808C16.3527 7.3587 16.233 7.30849 16.3874 7.34775C16.4497 7.3628 16.9018 7.56853 17.3375 7.66091C17.2322 7.6227 17.1174 7.58351 17.0114 7.54838C17.1437 7.58344 18.0463 7.84207 17.8358 7.74576C17.711 7.68402 17.3539 7.64807 17.3413 7.57613C17.6155 7.65371 18.9261 8.1161 19.2766 8.30183L18.814 10.4375C18.7864 10.4368 18.7679 10.4363 18.7597 10.4348C18.7488 10.4327 18.8136 10.4099 18.7991 10.4074C18.7838 10.4021 18.5709 10.4237 18.5417 10.4242C18.5237 10.4217 18.6167 10.3945 18.6079 10.3883C18.5988 10.3782 18.3329 10.4257 18.3284 10.4619C18.3872 10.4284 18.5682 10.4026 18.4791 10.444C18.4678 10.4489 18.4027 10.4468 18.3895 10.4545C18.2666 10.5189 18.6573 10.4151 18.729 10.4264C18.4642 10.4659 18.0962 10.5488 17.8399 10.7841C17.7181 10.8486 17.9808 10.6365 17.846 10.7128C17.5649 10.8869 17.7982 10.7895 17.7912 10.7982C17.7448 10.8581 17.4477 10.9827 17.5156 11.0508C17.4163 11.1415 17.4367 11.0966 17.3258 11.2559C17.3466 11.2395 17.3674 11.2235 17.3881 11.2081C17.2947 11.3963 16.9292 11.7357 16.939 11.7043C16.964 11.6024 17.14 11.4114 17.1513 11.3959C17.1674 11.3739 17.1399 11.2283 17.4166 11.0358C17.4542 10.8844 17.0513 11.4244 17.2076 11.1541C17.0722 11.3 16.5789 12.0926 16.5581 12.2442C16.5549 12.2612 16.6426 12.2153 16.5182 12.4197C16.4592 12.5178 16.5672 12.2669 16.5336 12.3088C16.3809 12.3993 15.7469 14.5679 15.7058 15.0169C15.7003 15.0447 15.6831 15.0307 15.6778 15.0582C15.6609 15.1435 15.6324 15.4542 15.5981 15.6055C15.688 15.2973 15.5852 15.9075 15.5599 16.0637C15.5185 16.3002 15.4873 16.2806 15.4657 16.3825C15.3815 16.7757 15.3958 17.4042 15.2934 17.708C15.3695 17.6981 15.2104 18.2444 15.1948 18.5001C15.1815 18.6971 15.2162 18.9926 15.2616 18.7237C15.2382 19.0681 15.2376 19.4297 15.2338 19.7525C15.2332 19.8062 15.2126 19.7318 15.2124 19.8233C15.2125 19.8315 15.2341 19.8437 15.2347 19.9216C15.2429 20.5662 15.2023 20.2526 15.1868 20.3729C15.1786 20.4401 15.1746 20.4893 15.1732 20.5253C15.1695 20.152 15.1722 19.7158 15.1756 19.5988C15.122 19.6984 15.1663 20.4348 15.1558 20.6492C15.1553 20.6567 15.1286 20.6304 15.1284 20.6381C15.1284 20.6383 15.1284 20.6384 15.1284 20.6386C15.1252 20.7214 15.1413 21.2326 15.1721 21.1271C15.1801 21.0964 15.1761 20.8654 15.1737 20.5811C15.1796 20.6581 15.2096 20.6006 15.2109 20.6142C15.2249 20.7783 15.2002 21.1751 15.2001 21.3141C15.2 21.3457 15.2191 21.343 15.2193 21.3481C15.2181 21.4742 15.162 21.4262 15.2223 21.5559C15.1607 21.7895 15.2004 21.1224 15.1585 21.1703C15.144 21.185 15.1437 21.4749 15.1598 21.7857L13.5569 22.1981C13.3957 21.8789 13.1231 21.5185 13.102 21.5424C13.1041 21.5353 13.0996 21.5161 13.0842 21.4799C13.0512 21.3967 12.8149 21.0936 12.7652 21.0511C12.7567 21.0437 12.7188 21.0798 12.7098 21.0694C12.6904 21.0428 12.4125 20.6525 12.2686 20.5492C12.3286 20.6241 12.3857 20.6977 12.4445 20.7754C12.0589 20.3503 12.0994 20.429 12.2234 20.5793C12.2298 20.5864 12.2347 20.5945 12.2408 20.6013C12.3321 20.7154 12.4502 20.8676 12.4482 20.8718C12.4508 20.8815 11.7741 20.1907 11.9347 20.2911C11.9604 20.3038 12.2585 20.6431 12.127 20.4571C12.1061 20.4252 11.8929 20.2267 11.8828 20.213C11.8298 20.1218 12.302 20.5497 12.2729 20.4722C12.1391 20.3805 12.015 20.2298 11.8783 20.1119C11.8173 20.0594 11.7846 20.0649 11.777 20.0585C11.6626 19.9617 11.7427 19.9987 11.7053 19.9651C11.684 19.9449 11.427 19.796 11.5209 19.7718C10.7305 19.1953 11.2874 19.6315 11.7284 20.0311C11.57 19.9225 11.3003 19.6721 11.1676 19.5752C11.1197 19.5398 11.1307 19.5828 11.0484 19.5242C10.8879 19.3972 10.0966 18.8056 9.87135 18.6732C10.01 18.7471 9.98668 18.6983 9.88178 18.6366C9.77625 18.5752 9.84389 18.6616 9.82134 18.6529C9.79928 18.641 9.30928 18.3402 9.21904 18.3024C9.6073 18.4965 9.53788 18.424 9.21181 18.2461C9.2635 18.2638 9.31488 18.2817 9.36597 18.2998C9.16863 18.2037 8.7803 17.9629 8.65956 17.9236C8.64096 17.9173 8.69426 17.9691 8.68377 17.9656C8.58308 17.9283 8.24482 17.7532 8.22703 17.756C8.21054 17.7565 8.34952 17.8382 8.2908 17.8241C8.27763 17.8207 8.15186 17.7307 8.007 17.6816C7.95341 17.6634 7.97642 17.6976 7.96271 17.6936C7.84864 17.6608 7.92629 17.6482 7.72314 17.5779C7.57446 17.5274 7.44936 17.5225 7.24585 17.4409C7.91085 17.7249 7.34313 17.4989 7.05705 17.4246C7.01008 17.4126 7.03896 17.4636 6.76762 17.3607C7.37805 17.4679 6.61289 17.2682 6.45813 17.2304C6.44961 17.2278 6.45411 17.2001 6.37718 17.1793C6.37062 17.1776 6.37533 17.1981 6.30314 17.1809C5.62537 17.028 6.06145 17.1139 5.93717 17.0645C5.88363 17.0431 5.5446 16.9973 5.45578 16.9817C5.43511 16.9777 5.4485 16.9603 5.36814 16.9458C5.2261 16.9202 5.09167 16.9181 4.99988 16.9047C4.98884 16.9031 4.99414 16.872 4.8141 16.8543C4.76338 16.8494 4.70515 16.8519 4.7754 16.8713C5.00511 16.9336 5.46424 16.9647 5.71855 17.0508C5.95279 17.1264 5.1981 16.9729 5.1544 16.9703C5.13965 16.9678 5.293 16.9794 5.14038 16.9494C5.01091 16.9239 4.76909 16.9388 4.57419 16.9007C4.55887 16.8975 4.40984 16.8326 4.41751 16.8311C4.42291 16.8293 4.66528 16.8522 4.63212 16.8347C4.62848 16.8325 4.47378 16.8119 4.45662 16.8001C4.43425 16.7853 4.38337 16.662 4.35093 16.6551C4.268 16.638 4.31943 16.6707 4.26538 16.6626C4.15025 16.6438 3.74285 16.571 3.72813 16.6112C3.79509 16.6192 3.8595 16.6273 3.92783 16.6362C3.55599 16.6068 3.71298 16.6389 3.65974 16.6417C3.60226 16.6455 3.62129 16.6112 3.49494 16.5989C3.46644 16.5941 2.93758 16.5742 2.94687 16.5912C3.23928 16.5796 3.12867 16.6194 3.14226 16.6205C3.1925 16.6258 3.25885 16.6047 3.32873 16.6094C3.81402 16.6453 3.32227 16.6511 3.43612 16.6687C3.47526 16.6746 3.55476 16.6593 3.57126 16.6616C3.62489 16.6691 3.6236 16.6965 3.65952 16.6971C3.74323 16.6987 3.64908 16.6522 3.65577 16.6508C3.73277 16.6319 4.02072 16.6889 3.83576 16.7142C3.94268 16.7393 3.9624 16.6898 4.04738 16.719C4.21622 16.7776 3.95835 16.7397 3.88636 16.7403C3.63606 16.7425 3.56426 16.7156 3.20401 16.702C3.07735 16.6976 2.92457 16.7166 2.86481 16.7161C2.82858 16.7148 2.46947 16.6207 2.46013 16.7571C2.3247 16.7422 2.10747 16.6534 1.96252 16.6601C1.83269 16.6662 1.87489 16.7135 1.8629 16.7156C1.8451 16.7187 1.69218 16.7189 1.64021 16.7276C1.57948 16.7377 1.61067 16.7548 1.51395 16.7661C1.27269 16.7948 1.27555 16.7468 1.25041 16.7447C0.957363 16.7245 1.09036 16.7871 1.02658 16.7965C0.992494 16.8015 0.694647 16.8134 0.410891 16.8373L0.0254986 14.8388C0.205714 14.7887 0.369213 14.7324 0.430039 14.7029C0.371191 14.7343 0.311469 14.765 0.250861 14.7951C0.374805 14.787 0.476177 14.6972 0.496782 14.7479C0.488423 14.6579 0.73963 14.6253 0.807009 14.5935C0.833526 14.5814 0.825609 14.5685 0.858758 14.5537C0.988022 14.4981 1.2819 14.3705 1.3461 14.327C1.62541 14.1487 0.84685 14.479 0.78155 14.4895C0.908277 14.4485 1.56549 14.0924 1.24066 14.2099C1.19093 14.228 1.12387 14.3048 1.09726 14.319C0.919051 14.4138 1.04755 14.3146 1.03155 14.3184C1.00566 14.3248 0.900159 14.4101 0.866165 14.4201C0.854826 14.4232 0.911321 14.3652 0.734762 14.4388C0.81171 14.3791 1.30593 14.1722 1.36217 14.1281C1.38259 14.1119 1.21514 14.1361 1.64408 13.9641C1.63635 13.9615 1.62862 13.9589 1.62091 13.9563C1.83879 13.8246 2.04919 13.6814 2.25217 13.5271C2.23867 13.555 2.13962 13.6632 2.2817 13.5509C2.36279 13.4855 2.28213 13.5066 2.28921 13.5001C2.38339 13.4724 3.59836 12.33 3.76809 12.0317C3.83759 11.9437 4.00182 11.6765 4.01442 11.656C4.09781 11.5403 4.38863 11.1223 4.43618 11.0304C4.46705 10.9746 4.41319 11.0129 4.44344 10.9647C4.47149 10.9199 4.4655 10.9801 4.47444 10.9671C4.55804 10.866 4.99326 9.96537 5.10382 9.75064C5.04242 9.88408 4.76162 10.557 4.78034 10.5504C4.7842 10.5491 4.88385 10.4015 4.89182 10.3642C4.93953 10.3206 4.97188 10.1042 5.03162 10.008C5.03829 9.99686 5.05168 10.0595 5.14314 9.87824C5.17458 9.81561 5.22299 9.63674 5.32489 9.47912C5.43033 9.23552 5.93654 7.9032 5.91193 7.79056C5.91086 7.7873 5.84014 7.97621 5.86284 7.84116C5.89219 7.66155 5.91898 7.83855 5.98308 7.6372C5.99477 7.60808 6.13703 7.03521 6.13487 7.01514C6.1369 6.83242 5.99662 7.32666 5.99221 7.31802C5.98612 7.29762 6.08201 6.88308 6.08778 6.86618C6.09457 6.85091 6.0677 7.20306 6.14418 6.78999C6.12683 6.83535 6.10928 6.8808 6.09163 6.92588C6.12478 6.73095 6.16566 6.72104 6.17868 6.67489C6.21866 6.53093 6.19558 6.36339 6.31286 6.14226C6.34387 6.08383 6.34441 6.19111 6.34872 6.18392C6.38889 6.11403 6.33972 6.00584 6.41095 5.90312C6.41599 5.89483 6.39916 6.16405 6.48196 5.70399C6.47156 5.73494 6.46108 5.76588 6.45054 5.79681C6.4529 5.72898 6.52286 5.26348 6.53373 5.19984C6.56861 5.01614 6.58015 5.18235 6.60258 4.99609C6.53899 5.10772 6.60779 4.54532 6.64389 4.58135C6.60267 4.49565 6.69598 4.02009 6.71554 3.79309C6.72908 3.65316 6.72793 3.35449 6.7331 3.3107C6.73997 3.25578 6.77471 3.27472 6.78875 3.17592C6.79282 3.14929 6.78439 2.84439 6.82987 2.58705C6.83885 2.5357 6.90271 2.42963 6.91492 2.52575C6.9362 2.69151 6.87263 2.99232 6.90825 2.99167C6.94766 2.98711 6.94308 2.57722 6.95034 2.46213C6.98561 1.94948 7.01904 2.24685 7.03209 2.23343C7.06316 2.20231 7.0653 1.91527 7.06758 1.90446C7.07987 1.85536 7.1024 2.05665 7.12044 2.06044C7.14463 2.06381 7.1889 1.79006 7.1966 1.85239C7.20833 1.94021 7.16929 2.19658 7.17045 2.20979C7.18955 2.41478 7.25033 2.13816 7.27786 2.0554C7.28647 2.03123 7.29901 2.12803 7.30168 2.10797C7.3416 1.80245 7.22533 2.04204 7.23381 1.84133C7.2405 1.66394 7.27688 1.8921 7.2787 1.88575C7.28116 1.876 7.28272 1.66597 7.29493 1.631C7.3028 1.61371 7.37134 2.17065 7.40164 2.15042C7.39738 1.96787 7.39089 1.79174 7.38224 1.61389C7.42358 1.60197 7.39448 1.85412 7.39825 1.88156C7.40665 1.93498 7.42774 1.78621 7.44065 1.79271C7.44903 1.79583 7.47827 1.97098 7.49063 1.8129C7.49472 1.7588 7.46613 1.64607 7.49217 1.44458C7.53656 2.13777 7.55532 1.65796 7.57002 1.63816C7.58446 1.61846 7.62126 1.94908 7.61185 1.54517C7.69161 1.52638 7.63749 1.55381 7.65245 1.66985C7.66994 1.80905 7.69718 1.48421 7.67593 1.99763C7.71461 1.96656 7.71085 1.55805 7.71255 1.53259C7.71503 1.51333 7.73459 1.60649 7.74044 1.57311C7.80671 1.18069 7.77791 1.44985 7.82206 1.33613C7.82657 1.32721 7.83255 0.957885 7.84767 1.23866C7.87252 1.75043 7.81346 1.9618 7.92698 2.05113C7.98136 1.67013 7.89677 1.21214 7.89078 1.09565C7.88254 0.917017 7.91243 1.10114 7.91809 1.07901C7.92005 1.0709 7.91213 0.917915 7.91376 0.916143C7.99795 0.802399 7.93901 1.5987 7.94931 1.84297C7.96234 1.77667 7.97509 1.71157 7.98754 1.64546C7.98876 1.7347 7.98945 1.82354 7.9896 1.91416C8.01544 1.48694 8.00035 1.89704 8.06902 2.00745C8.08464 2.03193 8.05965 1.74569 8.10093 2.07268C8.113 1.83158 8.12697 1.90781 8.10663 1.69386C8.1358 1.69537 8.1662 2.19038 8.17448 2.37896C8.21683 1.69941 8.11092 2.08668 8.16192 1.4976C8.12561 1.3879 8.13612 1.67176 8.12983 1.64914C8.10853 1.56496 8.13937 1.37038 8.05976 1.14354C8.04657 1.10569 8.01558 1.26856 8.00911 1.02918C8.00853 1.00255 8.03337 0.851599 8.03561 0.853799C8.06111 0.871992 8.05807 1.02134 8.06839 1.02747C8.07842 1.03257 8.06577 0.866522 8.06828 0.866244C8.09879 0.859503 8.08588 1.00404 8.09456 0.982871C8.11379 0.936832 8.15359 0.336542 8.16708 1.11987C8.10568 0.468301 8.13287 1.03706 8.15134 1.28973C8.15618 1.35354 8.17492 1.36924 8.18285 1.46157C8.19311 1.58125 8.1851 1.72103 8.18851 1.78069C8.19194 1.84682 8.23627 1.47215 8.22182 2.01397C8.26838 1.73692 8.21566 1.25409 8.23372 0.976387C8.27117 0.425884 8.32455 1.35917 8.32719 1.45471C8.32924 1.4807 8.35248 1.39307 8.35429 1.41039C8.35871 1.44027 8.35012 1.96826 8.36853 2.02227C8.38872 2.07476 8.36881 1.82695 8.3898 1.81132C8.40597 1.79816 8.42345 2.4446 8.43782 2.09572C8.44867 1.85295 8.38581 1.41428 8.44531 1.33834C8.45816 1.69372 8.4622 2.04771 8.45882 2.39606C8.48709 2.20648 8.51317 2.00999 8.53673 1.81751C8.544 2.21702 8.50851 2.5599 8.52523 2.93391C8.63628 2.03441 8.57528 3.22876 8.57843 3.24642C8.58421 3.25165 8.66443 2.89443 8.67731 2.8386C8.69238 3.158 8.62922 4.12327 8.74737 3.56271C8.72337 3.66436 8.74509 3.9174 8.7484 3.91353C8.7857 3.88804 8.80369 3.33805 8.82695 3.43019C8.85529 3.53464 8.79755 3.6764 8.78833 3.83543C8.73447 4.64444 8.93288 4.44257 8.80025 5.25379C8.80866 5.23849 8.81705 5.22318 8.82543 5.20786C8.69449 6.0917 8.51601 6.97112 8.2806 7.84068C8.24921 8.19595 8.0096 9.11178 7.83961 9.54888C7.80834 9.63765 7.61736 10.06 7.59844 10.0902C7.56633 10.1469 7.69231 9.81465 7.61759 9.95781C7.60626 9.98962 7.29221 10.7073 7.33834 10.6672C7.37806 10.5879 7.47194 10.3289 7.4951 10.2898C7.69538 10.0261 6.61103 12.2123 6.51551 12.3073C6.55212 12.2656 6.58848 12.2236 6.62461 12.1814C6.54146 12.3132 6.45561 12.4442 6.36732 12.5737ZM6.3739 5.63205C6.35827 5.54728 6.4131 5.3524 6.42254 5.23339C6.4366 5.0667 6.35965 4.7746 6.45797 4.90949C6.43388 5.1511 6.40594 5.39174 6.3739 5.63205ZM5.42748 8.99772C5.4985 8.85515 5.51607 8.99327 5.44384 9.10512C5.43559 9.11754 5.33035 9.18958 5.42748 8.99772ZM5.96978 7.41507C5.96894 7.42202 5.9307 7.55537 5.92831 7.5597C5.87049 7.67273 5.98571 7.27065 5.96978 7.41507ZM1.87131 13.86C2.00539 13.7693 1.8756 13.7847 1.80406 13.8585C1.79952 13.8632 1.86239 13.8659 1.87131 13.86ZM1.96858 13.7983C2.10522 13.7718 2.25021 13.5358 2.09183 13.6618C2.07695 13.6741 1.96271 13.7996 1.96858 13.7983ZM5.64355 8.47364C5.65702 8.4972 5.5941 8.64959 5.56573 8.71379C5.54922 8.70589 5.62377 8.53982 5.64355 8.47364ZM3.76998 12.0706C3.7809 12.0882 4.10661 11.6495 4.10791 11.604C4.06805 11.6829 3.76473 12.0588 3.76998 12.0706ZM2.84776 13.0966C2.86 13.0899 2.99223 12.9606 2.97832 12.9539C2.90093 13.0031 2.79438 13.1283 2.84776 13.0966ZM0.565463 14.5086C0.557945 14.5144 0.716862 14.5524 0.392131 14.6089C0.344611 14.6169 0.496297 14.5375 0.479056 14.5401C0.443955 14.5465 0.416817 14.5532 0.395565 14.5602C0.533042 14.5036 0.68013 14.4402 0.695592 14.4396C0.771703 14.4363 0.569587 14.5062 0.565463 14.5086ZM1.30614 16.8453C1.34017 16.8287 1.55943 16.8269 1.60869 16.8315C1.61717 16.8324 1.58175 16.8716 1.67898 16.8656C1.75689 16.8609 1.63932 16.8251 1.79129 16.8272C1.94432 16.8298 1.74081 16.8625 1.75417 16.8643C1.77101 16.866 2.01135 16.8437 2.00452 16.8668C1.99834 16.8834 1.74215 16.8773 1.67999 16.8833C1.59948 16.8906 1.69835 16.9152 1.56314 16.914C1.47795 16.9135 1.5231 16.8624 1.50501 16.8607C1.49025 16.8587 1.19071 16.9019 1.30662 16.8454C1.30646 16.8454 1.3063 16.8453 1.30614 16.8453ZM0.357928 14.5759C0.368073 14.5706 0.380312 14.5653 0.395565 14.5602C0.38295 14.5655 0.370392 14.5707 0.357928 14.5759ZM6.3106 6.09718C6.27961 6.17694 6.30825 5.92787 6.34427 5.83874C6.36073 5.83993 6.31588 6.08441 6.3106 6.09718ZM0.237738 14.6593C0.0168337 14.7169 0.173754 14.6517 0.357928 14.5759C0.301327 14.6055 0.311292 14.6391 0.237738 14.6593ZM4.89182 10.3642C4.88397 10.3715 4.87596 10.3745 4.86722 10.3709C4.88841 10.3522 4.89441 10.3526 4.89182 10.3642ZM4.61376 10.8423C4.54459 11.0206 4.73449 10.6864 4.71425 10.6777C4.70716 10.6752 4.6168 10.8355 4.61376 10.8423ZM1.69297 13.9675C1.70846 13.961 1.5341 14.1687 1.81805 13.9194C1.64432 14.0148 1.81716 13.8971 1.81016 13.8922C1.79328 13.8791 1.51814 14.0681 1.44902 14.0929C1.41761 14.1555 1.64265 13.9888 1.6926 13.9677C1.69273 13.9677 1.69284 13.9676 1.69297 13.9675ZM4.08899 16.9369C4.03877 16.9543 3.88082 16.931 3.77971 16.921C3.82844 16.9022 3.98512 16.9242 4.08899 16.9369ZM16.5414 7.37319C17.3596 7.54448 17.4388 7.67115 16.7062 7.44662C16.6909 7.44179 16.4908 7.37152 16.5414 7.37319ZM16.8459 12.058C16.7821 12.0943 16.8667 11.9105 16.9484 11.8014C16.9666 11.7766 17.0568 11.7026 17.0015 11.8151C16.9604 11.7866 16.8483 11.9504 16.8459 12.058ZM0.122908 14.7235C0.101452 14.7411 0.0580488 14.7582 0.0063287 14.7736L0.417332 16.9049C0.510455 16.8957 0.623224 16.8942 0.695182 16.8908C0.648738 16.9095 0.527134 16.9203 0.419406 16.9267L0.000156462 14.7526C0.0476954 14.7407 0.0918211 14.7303 0.122908 14.7235ZM19.1148 8.2802C19.194 8.31867 19.264 8.31182 19.251 8.3027C19.193 8.26139 19.0314 8.22135 19.1148 8.2802ZM0.742233 14.5048C0.758256 14.5168 0.509112 14.6312 0.479093 14.5983C0.53223 14.5829 0.733203 14.4983 0.742233 14.5048ZM3.89224 16.9048C3.84777 16.8922 4.08381 16.9003 4.15256 16.9167C4.14532 16.9328 3.92187 16.9126 3.89224 16.9048ZM18.152 10.547C18.112 10.5612 18.0146 10.6141 18.0117 10.6333C18.0077 10.6548 18.1433 10.5731 18.152 10.547ZM10.1204 2.16566C10.1222 2.15646 10.2975 2.35484 10.3574 2.47375C10.4622 2.6864 10.1177 2.17114 10.1204 2.16566ZM18.3493 7.98424C18.1366 7.86834 18.3741 7.99224 18.3773 7.95594C18.2348 7.89831 17.8269 7.75394 18.0901 7.88357C18.1423 7.9092 18.2807 7.95547 18.3493 7.98424ZM18.5559 8.07738C18.5845 8.07624 18.7672 8.11146 18.6202 8.0547C18.5523 8.02868 18.431 8.02413 18.5559 8.07738ZM11.0365 3.59016C11.1205 3.77803 10.6334 2.99484 10.628 2.97164C10.6232 2.95872 10.6208 2.9498 10.6201 2.94431C10.5945 2.92247 10.5024 2.77918 10.5129 2.74855C10.5387 2.79379 10.6144 2.91009 10.6205 2.92484C10.6232 2.93129 10.625 2.93622 10.6259 2.93981C10.6688 2.96933 11.0263 3.56639 11.0365 3.59016ZM11.8597 4.83813C11.6845 4.67754 11.7341 4.61006 11.7451 4.62149C11.9077 4.79154 11.7718 4.70235 11.7739 4.70992C11.777 4.72229 11.9067 4.85375 11.8592 4.83756C11.8594 4.83775 11.8595 4.83794 11.8597 4.83813ZM11.1978 3.85732C11.192 3.85067 11.0851 3.68521 11.0813 3.67701C11.0153 3.52987 11.3157 3.99443 11.1978 3.85732ZM2.47556 16.7669C2.6064 16.7765 2.47784 16.8033 2.39049 16.7924C2.38327 16.7914 2.35969 16.7588 2.47556 16.7669ZM18.6735 8.11645C18.6977 8.12948 19.0032 8.2659 19.2445 8.37234L18.814 10.3601C18.7201 10.3625 18.6566 10.3771 18.6693 10.3923C18.6815 10.3899 18.7378 10.3857 18.814 10.3868L19.2556 8.34806C18.9625 8.20992 18.5428 8.03655 18.6735 8.11645ZM16.2253 13.4783C16.2657 13.35 16.2611 13.5018 16.2257 13.5666C16.2124 13.5907 16.2151 13.5107 16.2253 13.4783ZM1.0883 14.3932C1.19951 14.3151 1.20782 14.3954 1.0909 14.4221C1.08631 14.4231 1.08392 14.3962 1.0883 14.3932ZM16.6106 12.4851C16.465 12.9135 16.3725 12.7618 16.652 12.2404C16.6497 12.2592 16.6475 12.278 16.6453 12.2969C16.9521 11.7044 16.6678 12.257 16.6122 12.4119C16.5896 12.4708 16.6306 12.4309 16.6109 12.4847C16.6108 12.4848 16.6107 12.4849 16.6106 12.4851ZM16.0286 14.1708C15.8274 14.5944 16.0964 13.758 16.1638 13.5191C16.1304 13.7605 16.0412 14.0631 16.1958 13.6619C16.0337 14.2639 16.0709 14.006 16.0601 14.0285C16.0492 14.0563 16.0372 14.1527 16.0286 14.1708ZM16.3707 13.029C16.3759 13.0049 16.4607 12.8276 16.483 12.763C16.4761 12.8639 16.3315 13.1951 16.3707 13.029ZM12.8253 5.9815C12.7969 5.98726 12.756 5.97222 12.6602 5.85248C12.6991 5.87731 12.7759 5.9451 12.8253 5.9815ZM6.528 5.50225C6.54794 5.39407 6.59012 5.17885 6.5542 5.24139C6.55114 5.2491 6.51402 5.49925 6.528 5.50225ZM17.7593 10.7304C17.7424 10.727 17.4123 11.048 17.5451 10.9553C17.5813 10.9179 17.8831 10.6633 17.7593 10.7304ZM17.7856 7.80582C17.8377 7.82272 18.0601 7.895 18.0676 7.89192C18.0886 7.87719 17.8135 7.79379 17.7856 7.80582ZM6.63657 4.95532C6.64175 4.94127 6.68066 4.60703 6.66375 4.6416C6.63278 4.71067 6.62133 5.0027 6.63657 4.95532ZM2.96185 16.721C2.98974 16.7212 3.02528 16.7496 3.03482 16.7503C3.05556 16.7498 3.56795 16.77 3.37026 16.7927C3.3337 16.7925 2.60786 16.75 2.50866 16.7492C2.47037 16.7113 2.78822 16.7524 2.86385 16.7519C2.87731 16.7517 2.88708 16.7209 2.96161 16.7212C2.96169 16.7211 2.96177 16.7211 2.96185 16.721ZM12.2877 5.40246C12.2541 5.40288 11.8781 4.94047 11.9058 4.92607C12.0312 5.08847 12.1573 5.24643 12.2877 5.40246ZM12.4729 5.63239C12.5425 5.7402 12.3443 5.51514 12.3003 5.44769C12.3116 5.43728 12.4604 5.61492 12.4729 5.63239ZM18.9573 8.34975C19.0219 8.37141 18.8442 8.25731 18.8896 8.2697C18.9183 8.27725 19.0529 8.34983 19.1028 8.36051C19.1168 8.36289 18.9858 8.26983 18.9444 8.25376C18.8854 8.23044 18.9318 8.27788 18.8685 8.25102C18.6676 8.16599 18.4643 8.06516 18.2686 7.99238C18.2507 7.98572 18.3835 8.05474 18.2307 7.99715C18.2116 7.99009 18.0622 7.90574 17.873 7.84581C17.423 7.78263 17.1326 7.61011 16.5699 7.51184C16.5866 7.52173 16.9992 7.64366 17.0194 7.65169C17.4786 7.78015 18.2749 8.05534 18.7286 8.25057C18.8409 8.29763 18.7932 8.25874 18.8422 8.27873C18.8812 8.29493 18.8218 8.30438 18.9573 8.34975ZM6.53607 5.56294C6.57687 5.51602 6.58597 5.33213 6.60513 5.21487C6.57009 5.25283 6.56246 5.45017 6.53607 5.56294ZM14.2461 7.04022C14.289 7.05423 14.4304 7.10513 14.446 7.09852C14.463 7.09122 14.2602 7.02359 14.2461 7.04022ZM5.80075 17.089C5.80661 17.0892 5.94269 17.1218 5.94743 17.1241C6.06329 17.177 5.65554 17.0794 5.80075 17.089ZM8.92146 18.1871C9.01702 18.23 9.11372 18.2687 9.13308 18.3084C9.07638 18.2738 8.90278 18.1979 8.92146 18.1871ZM12.4853 20.9023C12.4975 20.8622 12.6792 21.1139 12.7098 21.1598C12.687 21.1534 12.4762 20.9276 12.4853 20.9023ZM12.7619 6.07141C12.6371 5.9361 12.619 5.99183 12.561 5.89251C12.5524 5.87639 12.5885 5.75605 12.6972 5.93594C12.7171 5.96784 12.5992 5.8802 12.7619 6.07141ZM16.6932 12.1555C16.6928 12.1028 16.7633 11.9752 16.8097 11.8928C16.8143 11.9186 16.7219 12.0898 16.6932 12.1555ZM6.73811 4.35286C6.78129 4.26581 6.79943 3.83019 6.76786 3.93546C6.76432 3.95008 6.74659 4.29424 6.73811 4.35286ZM0.778074 16.784C0.952115 16.7454 0.58703 16.7652 0.471851 16.8015C0.524881 16.7946 0.766665 16.7862 0.778074 16.784ZM11.7567 20.116C11.7639 20.1208 11.89 20.2447 11.8958 20.2525C11.9834 20.3728 11.6223 20.019 11.7567 20.116ZM7.94437 17.7062C8.01483 17.7099 8.40709 17.893 8.48685 17.9539C8.38967 17.9395 7.86079 17.6987 7.94437 17.7062ZM13.3023 6.55512C13.2115 6.48347 13.1208 6.39509 13.047 6.31357C13.0735 6.31787 13.3025 6.54196 13.3023 6.55512ZM12.2234 20.5793C12.2298 20.5864 12.2347 20.5945 12.2408 20.6013C12.2349 20.5939 12.2291 20.5865 12.2234 20.5793ZM15.9513 7.42685C16.0798 7.45726 16.0596 7.42121 16.0514 7.41859C15.9535 7.38976 15.808 7.39345 15.9513 7.42685ZM6.605 5.43706C6.64025 5.40138 6.64893 5.20025 6.67204 5.08668C6.6449 5.11654 6.61692 5.34617 6.605 5.43706ZM15.8567 14.6369C15.7929 14.7738 15.8913 14.1805 15.9461 14.0624C15.9648 14.0585 15.8637 14.6149 15.8567 14.6369ZM0.20687 14.8513C0.225147 14.8702 0.441116 14.7684 0.389696 14.7743C0.357958 14.7787 0.196632 14.8401 0.20687 14.8513ZM16.0369 13.7772C16.0454 13.7207 16.1035 13.6018 16.1037 13.6497C16.104 13.7108 16.0348 13.7917 16.0369 13.7772ZM18.3847 10.2954C18.3666 10.2926 18.1622 10.3868 18.257 10.3787C18.3212 10.3736 18.3212 10.3404 18.3356 10.3358C18.3498 10.3257 18.7075 10.2962 18.3847 10.2954ZM15.3513 18.015C15.3527 17.8869 15.3762 17.7317 15.3881 17.5988C15.3966 17.6536 15.3738 17.9626 15.3513 18.015ZM1.20317 16.7061C1.17203 16.695 0.340452 16.7537 0.81577 16.7451C0.844148 16.7432 1.29596 16.728 1.20317 16.7061ZM12.7619 6.07141C12.7777 6.08834 12.7952 6.10815 12.8146 6.13129C12.7944 6.10925 12.7771 6.08908 12.7619 6.07141ZM14.2896 7.11324C14.2482 7.11837 14.4292 7.17706 14.49 7.18176C14.5107 7.16746 14.2933 7.11373 14.2896 7.11324ZM15.3661 17.5866C15.3638 17.5089 15.3875 17.3702 15.3964 17.2748C15.4097 17.2926 15.3844 17.5548 15.3661 17.5866ZM12.9036 21.2952C12.9798 21.411 13.0845 21.555 13.1004 21.5453C13.0996 21.5494 13.1009 21.5567 13.1045 21.5677C13.1077 21.5772 13.2001 21.6996 13.2283 21.757C13.4345 22.0949 12.3168 20.5371 13.024 21.4007C12.9831 21.3635 12.9445 21.3305 12.9036 21.2952ZM7.40799 17.4599C7.33359 17.4093 7.10356 17.364 7.15819 17.3915C7.19593 17.4093 7.48043 17.509 7.40799 17.4599ZM10.3045 18.8693C10.2868 18.852 10.0863 18.7415 10.0743 18.7488C10.1799 18.8298 10.3875 18.9473 10.3045 18.8693ZM6.79726 17.2359C6.74802 17.2177 6.67329 17.2346 6.67881 17.2379C6.72588 17.2651 6.87744 17.281 6.79726 17.2359ZM12.9596 6.40766C13.0018 6.46363 13.1971 6.59796 13.2471 6.60515C13.2512 6.61447 13.2646 6.63339 13.2947 6.66632C13.2946 6.66623 13.2945 6.66615 13.2944 6.66606C13.3188 6.69584 13.6727 6.96209 13.9313 7.06587C14.1949 7.16893 14.312 7.22083 13.8244 6.97664C13.7946 6.9591 13.8269 7.00297 13.7035 6.93031C13.6952 6.92525 13.7001 6.90764 13.6764 6.89275C13.6211 6.86465 13.3268 6.64541 13.26 6.60357C13.2616 6.60059 13.2598 6.59515 13.2537 6.58643C13.1987 6.51228 12.9238 6.36448 12.9596 6.40766ZM10.679 19.1239C10.6464 19.092 10.524 19.0137 10.5024 19.0181C10.5582 19.0654 10.7554 19.1979 10.679 19.1239ZM1.17328 16.6431C1.0761 16.6353 0.836685 16.6763 0.910515 16.684C0.955645 16.6881 1.28484 16.6515 1.17328 16.6431ZM9.44131 18.3528C9.90042 18.6333 9.55369 18.4141 9.63684 18.4345C9.57005 18.4057 9.50705 18.3797 9.44131 18.3528ZM11.4268 4.45051C11.4744 4.52782 11.3763 4.46746 11.3382 4.36891C11.3263 4.33802 11.4 4.40731 11.4268 4.45051ZM9.24172 0.999063C9.24763 1.08928 9.06938 0.737236 9.17087 0.856031C9.17538 0.861951 9.24025 0.993555 9.24172 0.999063ZM10.7239 3.45623C10.7802 3.49253 10.805 3.52526 10.8908 3.66885C10.7482 3.4645 10.8549 3.67311 10.7239 3.45623ZM13.102 21.5424C13.1016 21.5438 13.1013 21.5449 13.1004 21.5453C13.1007 21.5439 13.1012 21.543 13.102 21.5424ZM6.30301 17.1069C6.24157 17.0667 6.0583 17.0239 6.10733 17.06C6.1127 17.0633 6.27005 17.1159 6.30301 17.1069ZM13.2471 6.60515C13.2437 6.59701 13.2485 6.59745 13.26 6.60357C13.2585 6.60637 13.2541 6.60659 13.2471 6.60515ZM7.29026 17.3789C7.27731 17.3922 7.55206 17.4946 7.5626 17.497C7.72936 17.5253 7.40547 17.4152 7.29026 17.3789ZM1.10605 14.6061C1.11806 14.5987 1.01692 14.5956 0.972695 14.6339C0.938305 14.6638 1.06088 14.6348 1.10605 14.6061ZM10.3983 2.96574C10.3484 2.88629 10.2766 2.77111 10.2813 2.73832C10.3131 2.79582 10.4128 2.95945 10.3983 2.96574ZM9.29328 1.14473C9.37382 1.23244 9.5057 1.45577 9.58415 1.59536C9.55805 1.61642 9.35603 1.23674 9.29328 1.14473ZM12.7992 6.23461C12.8009 6.23955 12.9541 6.40215 12.9469 6.36384C12.9385 6.31275 12.7639 6.18241 12.7992 6.23461ZM0.704586 14.7506C0.617464 14.8009 0.848472 14.7614 0.929311 14.6866C0.971274 14.6493 0.719978 14.7432 0.704586 14.7506ZM5.72841 16.9404C5.59068 16.9238 5.92038 17.0181 5.97055 17.0071C5.90992 16.9909 5.77764 16.9461 5.72841 16.9404ZM10.0171 18.614C9.68904 18.3368 9.82424 18.5612 9.89393 18.5904C9.90393 18.5945 10.0245 18.6203 10.0171 18.614ZM6.96588 3.28124C6.96076 3.21889 6.91206 3.4469 6.93154 3.47885C6.94408 3.49832 6.96943 3.32088 6.96588 3.28124ZM15.1732 20.5253C15.1734 20.5435 15.1735 20.5623 15.1737 20.5811C15.1726 20.5671 15.1723 20.5484 15.1732 20.5253ZM4.51515 16.6414C4.80837 16.7759 4.78451 16.7013 4.81135 16.7053C4.86809 16.7147 4.99514 16.7603 5.10052 16.7741C4.97863 16.7642 4.85564 16.7554 4.73153 16.748C4.82836 16.7628 5.65379 16.9478 5.66996 16.9412C5.69934 16.9247 5.43977 16.8789 5.43202 16.8761C5.42165 16.8713 5.39212 16.8042 5.36809 16.7973C5.32701 16.782 4.63123 16.6674 4.51515 16.6414ZM9.23732 18.1811C9.29542 18.2198 9.30129 18.2501 9.33217 18.2602C9.34267 18.2636 9.35505 18.2443 9.39055 18.2568C9.33989 18.2314 9.28882 18.2061 9.23732 18.1811ZM3.96306 16.6633C3.87938 16.6265 4.26622 16.6772 4.27703 16.6827C4.34051 16.7088 4.03256 16.6921 3.96306 16.6633ZM7.1601 17.3147C7.14818 17.3083 6.86832 17.212 6.86547 17.2281C6.93907 17.2609 7.31042 17.3847 7.1601 17.3147ZM9.43154 18.2773C9.52055 18.3285 9.67692 18.4444 9.67518 18.404C9.67505 18.4039 9.67492 18.4038 9.67478 18.4037C9.59186 18.3594 9.51371 18.319 9.43154 18.2773ZM0.413406 14.9346C0.604873 14.9254 0.500074 14.8902 0.340571 14.9253C0.301404 14.9641 0.382065 14.936 0.413406 14.9346ZM0.978752 14.7605C1.03111 14.7541 1.5044 14.5133 1.41747 14.5216C1.38863 14.5266 1.12428 14.6823 1.11122 14.6843C1.09079 14.6902 1.16526 14.622 1.02134 14.6931C1.03449 14.6993 0.961457 14.7645 0.978752 14.7605ZM0.568367 14.917C0.753407 14.8931 0.7665 14.8043 0.636489 14.8541C0.586904 14.8727 0.541911 14.9202 0.568367 14.917ZM0.659353 16.5771C0.608193 16.5759 0.495325 16.5785 0.387817 16.595L0.0941685 15.0723C0.131107 15.0589 0.166559 15.0437 0.196895 15.027C0.161405 15.0374 0.125735 15.0477 0.0898821 15.0577L0.389258 16.6102C0.524473 16.599 0.658521 16.5892 0.791408 16.5808C0.810087 16.5649 0.721323 16.5783 0.658881 16.5771C0.659038 16.5771 0.659196 16.5771 0.659353 16.5771ZM8.51626 0.197675C8.57887 0.350538 8.38379 0.0271781 8.37986 0.00928155C8.37143 -0.041193 8.48849 0.129844 8.51626 0.197675ZM7.70905 2.08093C7.7182 2.03611 7.74715 2.0067 7.73265 1.90872C7.71121 2.00618 7.68905 2.10883 7.66636 2.20394C7.71331 2.27959 7.69903 2.13176 7.70905 2.08093ZM7.8866 1.70544C7.88776 1.71936 7.96197 1.64312 7.91274 1.82223C7.88075 1.94529 7.84322 1.27938 7.86962 1.16331C7.88942 1.29199 7.87696 1.58526 7.8866 1.70544ZM8.16846 0.521627C8.1742 0.512045 8.19793 0.774613 8.19452 0.80056C8.1802 0.956049 8.14065 0.567192 8.16846 0.521627ZM8.18876 1.33922C8.20053 1.21987 8.21575 1.48327 8.20794 1.56478C8.19444 1.57222 8.18734 1.35706 8.18876 1.33922ZM8.40629 2.14307C8.42686 2.27647 8.57672 2.31579 8.4602 2.16281C8.45464 2.15548 8.4057 2.13723 8.40629 2.14307ZM8.25755 0.770281C8.24906 0.890154 8.22674 0.62551 8.22939 0.543164C8.24291 0.533547 8.25926 0.755502 8.25755 0.770281ZM8.34794 2.28007C8.40112 2.44029 8.47591 2.32772 8.46969 2.30776C8.44356 2.22636 8.25174 1.99649 8.20986 1.94866C8.45277 2.32355 8.3223 2.20321 8.34794 2.28007ZM8.81837 2.92011C8.9104 3.04639 8.72479 2.69346 8.65452 2.64208C8.69726 2.70999 8.79234 2.8847 8.81837 2.92011ZM9.29051 3.75707C9.32801 3.82509 9.46092 4.05335 9.5004 4.07906C9.44505 3.99956 9.32397 3.77342 9.29051 3.75707ZM9.34347 3.94811C9.39614 4.07931 9.47781 4.06618 9.37295 3.9437C9.36887 3.93892 9.34195 3.94301 9.34347 3.94811ZM9.72952 4.59485C9.75516 4.68845 9.87362 4.7338 9.79369 4.60979C9.76974 4.57279 9.72701 4.58477 9.72952 4.59485ZM8.34405 2.52931C8.39959 2.6473 8.52974 2.76175 8.39327 2.52304C8.4501 2.60232 8.50642 2.68038 8.56222 2.75727C8.40489 2.43894 8.3513 2.49041 8.30471 2.40671C8.23908 2.28821 8.29613 2.26616 8.32641 2.28011C8.23887 2.20566 7.98983 1.78534 7.83648 1.53548C7.95182 1.76449 8.13608 2.13045 8.24823 2.33773C8.28084 2.39809 8.32676 2.44283 8.35837 2.49929C8.40674 2.58604 8.34107 2.52263 8.34379 2.52887C8.34387 2.52901 8.34396 2.52916 8.34405 2.52931ZM10.2936 5.42407C10.4157 5.6546 10.3815 5.48001 10.2854 5.36655C10.2809 5.36196 10.2906 5.41833 10.2936 5.42407ZM8.46072 0.407686C8.45062 0.763278 8.40265 0.506639 8.49017 1.24177C8.43712 0.934348 8.45828 1.22742 8.43874 1.16745C8.42344 1.11786 8.42828 0.93505 8.40395 1.04218C8.43246 0.903309 8.38773 0.300096 8.38869 0.277963C8.38871 0.278208 8.38873 0.278452 8.38875 0.278696C8.39044 0.263004 8.46276 0.295765 8.46072 0.407686ZM9.12789 3.86102C9.09752 3.98063 9.23133 3.92665 9.26467 4.11699C9.47464 4.24703 8.935 3.59724 8.95707 3.45676C9.43611 4.24586 8.70914 2.88638 8.9363 3.51069C8.69279 3.02241 8.82829 3.36794 8.76942 3.30568C8.70671 3.23937 8.57439 2.98364 8.55276 3.01206C8.55284 3.0122 8.55293 3.01234 8.55301 3.01248C8.6488 3.16561 8.74146 3.31245 8.84492 3.47523C8.80961 3.28133 8.99287 3.61884 9.00906 3.75443C9.04885 3.79039 9.08846 3.82592 9.12789 3.86102ZM8.64276 2.94797C8.652 2.96686 8.85808 3.28445 8.86165 3.26224C8.83959 3.20985 8.54523 2.74699 8.64276 2.94797ZM7.73682 1.45181C7.80254 1.56534 7.90897 1.77521 7.97133 1.82776C7.8978 1.70221 7.79589 1.4995 7.73682 1.45181ZM12.0077 7.55359C12.165 7.66999 11.7311 7.25313 11.8397 7.39182C11.8453 7.40011 12.0003 7.54926 12.0077 7.55359ZM9.3638 4.20653C9.44234 4.379 9.46782 4.25798 9.37318 4.15256C9.36767 4.14646 9.36014 4.19854 9.3638 4.20653ZM8.48887 0.695444C8.51217 0.702327 8.51823 1.2226 8.51855 1.30674C8.49977 1.26097 8.46535 0.678201 8.48887 0.695444ZM7.54476 1.27978C7.61532 1.5554 7.88916 1.84775 7.90981 1.88651C7.92967 1.92425 7.86691 1.8836 7.87104 1.89242C7.88148 1.91441 8.11032 2.2966 8.12229 2.31169C8.13157 2.32374 8.13183 2.23183 8.19054 2.30162C8.08164 2.17278 7.66974 1.43586 7.65234 1.41484C7.63251 1.3889 7.71143 1.62382 7.545 1.2802C7.54492 1.28006 7.54484 1.27992 7.54476 1.27978ZM7.95499 1.98367C7.9151 1.87696 8.07689 2.14689 8.10814 2.21366C8.17867 2.36485 7.96102 1.99897 7.95499 1.98367ZM8.32146 2.63637C8.33711 2.67143 8.50229 2.95306 8.53476 2.96381C8.481 2.82057 8.28747 2.55968 8.32146 2.63637ZM10.2885 5.67633C10.3354 5.73741 10.4688 5.94766 10.4917 5.94583C10.436 5.87607 10.3097 5.67341 10.2885 5.67633ZM8.67766 2.43582C8.69744 2.29274 8.6955 2.6261 8.68349 2.72287C8.67077 2.72962 8.6764 2.44695 8.67766 2.43582ZM9.22647 4.33284C9.24487 4.37789 9.827 5.23156 9.91437 5.33466C9.84814 5.22063 9.2843 4.3665 9.25757 4.33256C9.24845 4.32231 9.22374 4.32689 9.22647 4.33284ZM8.0617 2.46013C7.99131 2.39722 7.99008 2.32851 7.98459 2.31842C7.93106 2.21981 7.80401 2.01659 7.85412 2.04793C7.94915 2.23169 8.20154 2.58512 8.0617 2.46013ZM10.2263 5.80906C10.4404 6.08638 10.073 5.52782 10.1006 5.61523C10.1026 5.62147 10.205 5.78195 10.2263 5.80906ZM9.15669 4.23936C9.08849 4.17981 8.56461 3.30305 8.48793 3.1729C8.59772 3.27185 8.63055 3.38696 8.73976 3.55936C8.7688 3.60504 8.77609 3.58345 8.77917 3.58838C8.82899 3.66709 8.77502 3.61862 8.80499 3.66739C8.82413 3.70079 9.23785 4.30821 9.15669 4.23936ZM8.01852 2.42589C7.9781 2.39073 7.64939 1.84627 7.63821 1.81765C7.56839 1.63565 8.00198 2.38893 8.01852 2.42589ZM9.17679 4.34019C9.07139 4.26799 8.83232 3.82829 9.03378 4.10093C9.05435 4.12926 9.11486 4.26389 9.17679 4.34019ZM10.1671 5.80691C10.17 5.81475 10.3915 6.13263 10.4067 6.1254C10.3766 6.07801 10.0644 5.63808 10.1671 5.80691ZM10.0151 5.68518C10.0204 5.69195 9.99552 5.60539 10.0914 5.74639C10.1005 5.7594 10.0834 5.79499 10.224 5.96674C10.2534 6.00259 10.3133 6.04589 10.3113 6.04094C10.2099 5.81854 9.74548 5.33269 10.0151 5.68518ZM7.9892 2.43018C7.9939 2.46602 7.91661 2.41891 7.89778 2.34505C7.88976 2.3133 7.94156 2.35098 7.9892 2.43018ZM10.8781 6.75515C10.7146 6.60028 11.1666 7.14584 11.1949 7.15996C11.1943 7.13894 10.8895 6.76836 10.8781 6.75515ZM8.8648 2.7793C8.86481 2.77913 8.86481 2.77897 8.86482 2.7788C8.85159 2.95808 8.83482 2.84597 8.83383 2.85433C8.78479 3.23722 8.83667 3.13917 8.83945 3.19987C8.84414 3.33089 8.78728 3.30414 8.79696 3.52309C8.78465 3.16281 8.77849 3.4893 8.75671 3.49816C8.66955 3.53345 8.82716 3.02206 8.8152 2.8419C8.81389 2.81685 8.7784 2.99946 8.77353 2.93529C8.75897 2.73214 8.90981 2.08074 8.8648 2.7793ZM7.86579 2.29833C7.80489 2.24576 7.50609 1.68756 7.60864 1.82164C7.6269 1.84729 7.95854 2.38389 7.86579 2.29833ZM14.6917 20.5248C14.8008 20.6471 14.6105 20.3208 14.5509 20.2708C14.5239 20.247 14.6456 20.4719 14.6917 20.5248ZM13.0283 18.4894C12.8825 18.3626 12.6752 18.3032 12.8595 18.4464C12.8782 18.4606 13.0361 18.5134 13.0283 18.4894ZM14.0939 13.3944C14.0124 13.5734 14.0738 13.5776 14.1094 13.4399C14.1222 13.3915 14.0964 13.3887 14.0939 13.3944ZM13.2665 20.5617C13.2641 20.5814 13.2684 20.8006 13.2824 20.7921C13.2899 20.7123 13.2811 20.4388 13.2665 20.5617ZM14.1018 13.3328C14.0822 13.4458 14.1749 13.2692 14.1744 13.1195C14.1573 13.1902 14.1037 13.3214 14.1018 13.3328ZM9.27311 4.73281C9.33811 4.78736 9.48789 5.02716 9.57441 5.14715C9.55989 5.18383 9.32882 4.80859 9.27311 4.73281ZM13.5837 19.0799C13.4412 18.9644 13.6986 19.259 13.6947 19.213C13.6929 19.2083 13.5899 19.0845 13.5837 19.0799ZM18.4396 8.29355C18.2776 8.32513 18.8005 8.31319 18.6554 8.28978C18.6481 8.28743 18.4483 8.29032 18.4396 8.29355ZM17.1845 9.78262C17.2568 9.81199 17.6041 9.9367 17.4757 9.86999C17.454 9.85808 17.1943 9.76665 17.1845 9.78262ZM8.86184 3.212C8.89777 3.16391 8.87227 3.45762 8.86314 3.5001C8.85987 3.51587 8.81564 3.27691 8.86184 3.212ZM13.8028 14.6131C13.7867 14.7116 13.7312 14.9621 13.7404 15.0094C13.7578 14.8905 13.8425 14.5878 13.8028 14.6131ZM14.1379 19.6972C14.0646 19.5519 13.8807 19.3507 13.8904 19.4321C14.0905 19.6561 13.9005 19.3753 14.1379 19.6972ZM14.2511 12.6961C14.2232 12.7741 14.2481 12.8456 14.2527 12.8377C14.2974 12.7611 14.2931 12.6231 14.2511 12.6961ZM13.3098 18.5548C13.2901 18.5584 13.285 18.81 13.2992 18.777C13.3038 18.7664 13.3253 18.5522 13.3098 18.5548ZM11.2909 7.4173C11.366 7.52306 11.0827 7.24596 11.0343 7.15695C11.0184 7.0965 11.2783 7.40394 11.2909 7.4173ZM15.2059 10.5546C15.1862 10.5267 14.9812 10.9208 15.0877 10.78C15.1136 10.7443 15.2111 10.5631 15.2059 10.5546ZM18.1502 10.2306C18.3812 10.2889 17.4775 9.88965 17.7018 10.028C17.7206 10.0365 18.1301 10.223 18.1502 10.2306ZM16.6611 9.67105C16.6999 9.68612 16.6523 9.77075 16.5041 9.69277C16.4845 9.68253 16.5884 9.68433 16.573 9.67423C16.5634 9.66669 16.2233 9.56675 16.2045 9.56616C16.1866 9.5646 16.2 9.59914 16.1818 9.59843C16.162 9.59734 15.9531 9.52318 15.8375 9.50051C15.6254 9.45837 15.5893 9.47919 15.5731 9.47604C15.5196 9.46661 15.4379 9.43383 15.3245 9.41496C14.8039 9.33258 13.7414 9.19089 13.1925 8.86682C13.6783 9.10102 14.1706 9.18502 14.6039 9.25457C14.4727 9.28734 15.232 9.31802 14.789 9.30701C15.0333 9.32115 16.5528 9.59837 16.6607 9.67092C16.6609 9.67096 16.661 9.671 16.6611 9.67105ZM12.4758 17.9793C12.5889 18.0265 12.1117 17.658 12.0473 17.6613C12.108 17.7108 12.4631 17.9717 12.4758 17.9793ZM14.4977 19.9176C14.5378 19.9618 14.6232 19.9622 14.7766 20.2323C14.7767 20.2326 14.7769 20.2328 14.7771 20.233C14.8215 20.3125 14.7494 20.2371 14.7544 20.2539C14.7572 20.2606 14.8885 20.5069 14.7533 20.3202C14.5402 20.0344 14.7717 20.2629 14.6629 20.1112C14.6522 20.0939 14.4061 19.8291 14.414 19.8535C14.4141 19.8547 14.4859 19.9349 14.4941 19.9511C14.5254 20.0114 14.4897 19.9975 14.4947 20.0056C14.5138 20.0285 14.8666 20.4626 14.8853 20.5534C14.8977 20.5713 14.3422 19.8415 14.3191 19.821C14.3077 19.8018 14.3566 19.7745 14.3464 19.7531C14.342 19.741 14.0916 19.4735 14.0642 19.4367C14.0563 19.4254 14.0506 19.4165 14.0465 19.4098C14.0707 19.4622 13.8512 19.2145 13.8728 19.211C13.8816 19.2086 14.0307 19.381 14.0348 19.3885C14.0367 19.3915 14.0382 19.3944 14.0397 19.3969C14.028 19.3434 14.5184 19.9391 14.4359 19.7917C14.5875 19.9574 14.379 19.7921 14.4977 19.9176ZM15.1495 20.8095C15.1319 20.7913 15.1141 20.7731 15.0962 20.7549C15.2001 20.9131 15.2986 21.0918 15.3889 21.2821L13.1131 21.8676C13.1098 21.6534 13.1113 21.4162 13.1074 21.1912C13.1057 21.0842 13.072 21.2083 13.0797 21.067C13.0859 20.9529 13.1182 20.8341 13.126 20.8931C13.1277 20.9061 13.1087 21.1354 13.1133 21.2491C13.1268 21.5791 13.1563 21.4991 13.1574 21.5174C13.1587 21.5399 13.1439 21.7537 13.1495 21.8653C13.1495 21.8656 13.1495 21.8659 13.1496 21.8662L15.3563 21.2984C15.202 21.0033 15.1098 20.8748 14.8922 20.496C15.0497 20.7018 15.0087 20.5538 15.1495 20.8095ZM16.4481 8.9838C16.4479 8.95656 16.7164 8.78337 16.8157 8.72355C16.8089 8.74713 16.5338 8.90932 16.4481 8.9838ZM5.61479 13.5468C5.6408 13.4678 5.26229 13.9155 5.38047 13.813C5.40753 13.7909 5.56945 13.605 5.61479 13.5468ZM3.70641 15.3964C3.64807 15.4521 3.91784 15.2743 3.90176 15.2544C3.89679 15.2492 3.71424 15.39 3.70641 15.3964ZM13.229 17.6468C13.2291 17.633 13.254 17.4325 13.2563 17.4268C13.3009 17.2967 13.2244 17.9552 13.229 17.6468ZM0.821409 16.9185C0.961463 16.8621 0.794847 16.9085 0.646776 16.9511L0.202139 14.6454C0.325652 14.6343 0.433952 14.6204 0.321785 14.6181C0.316373 14.618 0.261112 14.622 0.20039 14.627L0.651981 16.9688C0.729623 16.9471 0.814469 16.9212 0.821409 16.9185ZM1.12114 14.5514C1.05567 14.5556 0.784622 14.5626 0.780932 14.5729C0.777128 14.5882 1.08825 14.5792 1.12114 14.5514ZM14.1553 12.6061C14.1113 12.6238 14.2565 12.2743 14.2995 12.1488C14.3419 12.1336 14.1908 12.4775 14.1553 12.6061ZM13.5641 14.8606C13.8531 13.3433 13.8465 13.6961 13.5644 14.9534C13.5418 14.9511 13.5481 14.9559 13.5641 14.8606ZM14.0321 12.9264C14.0373 12.9872 13.9798 13.1598 13.9468 13.2736C13.9365 13.25 14.0104 13.0108 14.0321 12.9264ZM6.0704 13.0159C6.03774 13.117 5.73999 13.4573 5.77813 13.3854C5.78945 13.3704 6.08044 12.9776 6.0704 13.0159ZM13.2098 17.5178C13.1718 17.5494 13.2286 17.0999 13.2407 17.0656C13.2852 16.9295 13.2043 17.4806 13.2098 17.5178ZM15.0773 10.4572C15.0987 10.3678 15.2583 10.1443 15.3595 10.0066C15.3319 10.0814 15.148 10.3378 15.0773 10.4572ZM14.5183 11.4983C14.5209 11.4882 14.6146 11.2861 14.6204 11.278C14.7192 11.123 14.4552 11.6941 14.5183 11.4983ZM9.13285 2.53483C9.13365 2.5416 9.12671 2.70009 9.12537 2.70574C9.09482 2.84528 9.11549 2.37166 9.13285 2.53483Z" fill="black"/>
</svg>
