<svg width="51" height="46" viewBox="0 0 51 46" fill="none" xmlns="http://www.w3.org/2000/svg">
<path d="M23.4741 39.1621C26.2741 39.1621 27.6408 43.1621 27.9741 45.1621C28.9741 37.6617 47.6369 29.1626 48.4741 20.1621C50.0741 2.96214 33.1408 0.995472 24.4741 2.16214C17.3075 2.99547 2.77411 7.96214 1.97411 21.1621C0.974109 37.6621 19.9741 39.1621 23.4741 39.1621Z" fill="#FE8353"/>
<path d="M20.9366 37.0323C20.8585 37.0293 20.534 36.9789 20.386 36.9617C20.5655 36.9325 21.2233 37.0454 20.9366 37.0323ZM5.24684 34.7929C5.35937 34.878 5.47365 34.9624 5.58801 35.0446C5.29132 34.776 4.89611 34.4162 4.64388 34.1398C4.60271 34.0949 4.74077 34.1806 4.64112 34.0767C4.5421 33.9723 4.52247 34.0284 4.37471 33.8803C4.20397 33.721 3.52279 32.8737 3.30543 32.5711C2.454 31.4584 1.71795 30.2095 1.2269 28.8948C1.82364 30.217 1.28183 28.866 1.13549 28.4783C1.11173 28.39 0.97816 28.4643 0.612295 27.0452C0.420332 26.1567 0.713678 26.9507 0.370382 25.4685C0.482908 26.6313 0.257577 25.5111 0.157171 24.5958C0.128323 24.4201 0.0481269 23.1903 0.0493402 22.6165C0.0456972 22.4321 -0.00463319 22.1478 0.000109553 21.8965C0.00348103 21.7236 0.0350784 21.5936 0.0458533 21.3337C0.0499594 21.2381 0.0547019 21.1423 0.0600857 21.0461C0.12346 19.9274 0.276295 18.8493 0.545374 17.7507C0.511795 18.4729 0.727427 17.2214 0.756938 17.1732C0.860884 16.9038 0.552469 18.1661 0.698365 17.6722C0.863557 16.9773 1.07329 16.2795 1.32408 15.5996C1.09939 16.1515 1.49806 14.824 1.65485 14.6107C1.44603 14.6283 3.26498 11.7264 3.59919 11.3412C3.66129 11.2545 3.17816 11.7693 4.191 10.4941C4.30353 10.3584 4.28908 10.4325 4.34463 10.3589C4.37758 10.3152 4.50406 9.98437 4.78594 9.75703C4.89426 9.68141 4.37613 10.3227 5.59494 8.98025C4.9884 9.39609 7.35778 7.1852 7.87406 6.89601C7.77221 6.9566 7.67062 7.01804 7.56929 7.08034C8.04976 6.7476 8.11221 6.65821 8.21766 6.57966C8.64358 6.26615 9.25814 5.88263 9.66423 5.61308C10.1401 5.2989 10.1054 5.23578 10.6875 4.91536C10.5445 4.98279 10.4017 5.05158 10.2591 5.12174C10.6516 4.88265 11.0507 4.65239 11.4521 4.43264C10.5758 5.03754 11.6521 4.32159 11.7276 4.28346C11.8453 4.21565 11.6921 4.34203 11.8894 4.22999C11.9097 4.21852 11.8624 4.20144 12.1693 4.0351C12.8111 3.6931 12.7313 3.78914 13.0046 3.65279C13.0297 3.64099 12.927 3.65179 13.3986 3.41877C14.9113 2.69849 13.3969 3.44151 13.3458 3.47621C13.2734 3.52136 13.8434 3.38193 12.5509 3.97134C12.9826 3.76962 13.0541 3.80453 13.1023 3.78195C13.1452 3.75961 13.8832 3.40279 13.9261 3.38372C14.2868 3.19869 13.9453 3.3077 14.0142 3.26861C14.0702 3.23329 14.9989 2.88984 15.1695 2.6919C15.652 2.62161 14.9506 2.88272 14.2333 3.22005C14.1364 3.28621 14.9437 2.96197 14.988 2.94649C16.026 2.52428 15.4156 2.67293 15.6229 2.52531C15.7331 2.44812 16.1857 2.34391 15.7587 2.41756C16.7132 2.04719 16.1491 2.31296 16.2137 2.29552C16.3101 2.27048 16.6364 2.12683 16.6812 2.11473C16.745 2.09711 16.5386 2.20114 16.7871 2.12384C16.8281 2.11087 17.2067 1.92535 16.6893 2.08178C17.3728 1.84952 17.2989 1.8345 17.5592 1.83775C17.983 1.52946 17.9315 1.81857 18.1189 1.76884C18.6145 1.64092 18.4385 1.5632 18.4618 1.54915C18.6338 1.44883 20.0245 1.1102 20.3669 1.01593C20.2503 1.13522 19.2614 1.29999 19.0574 1.38003C18.3609 1.63686 20.0776 1.1462 19.5882 1.40095C19.7992 1.31161 20.0087 1.22477 20.2167 1.14041C20.6396 1.11496 20.0791 1.27562 21.1512 1.00225C21.311 0.899216 20.3918 1.18678 20.5674 1.09517C20.6735 1.03782 21.2968 0.891019 21.3106 0.873454C21.3164 0.851872 20.7526 1.0012 20.8362 0.953192C21.0139 0.83533 23.129 0.479586 21.5388 0.830728C21.9758 0.739072 22.2411 0.814954 22.6154 0.709406C22.866 0.645224 21.4112 0.704255 23.5532 0.39314C23.6075 0.441437 22.6999 0.541655 22.6768 0.553489C22.6452 0.565461 22.8287 0.66796 22.8595 0.66954C22.9187 0.671434 23.5966 0.540987 24.2759 0.457424L24.2452 0.46128C24.7934 0.381687 25.3685 0.327531 25.5741 0.339437C25.3823 0.2703 27.2361 0.202706 27.4241 0.186016C27.4769 0.177627 27.277 0.138299 27.3334 0.131239C27.689 0.0848688 28.6483 0.152801 29.0982 0.163554C29.5922 0.172973 29.5322 0.133765 29.5596 0.133928C29.7791 0.141863 29.6029 0.164565 29.7373 0.168249C29.9443 0.166679 31.3328 0.250239 31.4019 0.256587C31.4225 0.256431 31.1996 0.192807 31.5027 0.20771C31.5555 0.212562 31.5164 0.254508 32.4184 0.323465C33.5011 0.415969 31.6745 0.175081 32.1289 0.167635C32.8173 0.320311 32.8019 0.242648 32.9907 0.271229C33.0563 0.281746 33.5339 0.410566 34.0599 0.491072C33.6802 0.441497 33.3018 0.399238 32.921 0.363422C33.2932 0.419374 34.0136 0.510978 34.318 0.578409C34.4658 0.610603 34.3347 0.644248 34.6567 0.700271C34.7245 0.713565 35.0237 0.621648 34.1634 0.537548C34.1031 0.477604 34.5039 0.576495 34.6921 0.597515C34.7206 0.600638 34.8474 0.539712 35.0769 0.636319C35.1314 0.665749 34.4637 0.752957 36.1011 0.936453C36.1539 0.943031 35.9814 0.872121 36.0332 0.877796C36.0688 0.880874 36.4748 0.990946 36.5208 0.998964C36.5681 1.00601 36.3786 0.925225 36.4351 0.93263C36.726 0.970531 37.0619 1.19212 36.4848 1.03427C36.6749 1.0982 36.8641 1.16419 37.0526 1.23235C36.8717 1.08174 37.3634 1.28759 37.6296 1.36544C39.3346 1.8852 38.2171 1.46511 38.5198 1.52696C39.0065 1.63998 38.5938 1.66717 39.3026 1.87557C39.3665 1.90176 38.5637 1.49218 40.1698 2.18632C39.9306 2.08715 39.691 1.99286 39.4496 1.90256C39.5546 2.04038 40.3142 2.24673 40.3704 2.27371C41.0047 2.54788 40.5682 2.37099 41.5128 2.78625C41.597 2.82446 41.7643 2.93787 41.9431 3.02234C42.6868 3.37102 41.0033 2.48634 40.9658 2.44916C40.9591 2.39885 42.7662 3.37118 42.8109 3.44106C43.0488 3.62685 41.9986 2.98084 42.1761 3.14462C42.2642 3.15298 44.7353 4.76042 45.134 5.23487C45.6352 5.70983 45.7564 6.02936 45.863 5.9291C45.9012 6.1676 46.0866 6.22278 46.147 6.28854C46.8576 7.09025 46.8499 7.09521 47.4113 7.82835C47.5339 7.99454 47.592 8.15729 47.6381 8.21299C47.6647 8.24528 47.6601 8.15422 47.7846 8.31736C47.9821 8.5347 48.7602 10.0577 48.7714 10.1972C48.8068 10.3225 48.4428 9.55087 48.4723 9.7081C48.7522 10.2626 48.99 10.7762 49.2051 11.3618C49.291 11.5998 49.2182 11.4872 49.2545 11.5892C49.2743 11.6282 49.5668 12.4499 49.5623 12.4149C49.6141 12.3049 48.5861 9.80011 48.8971 10.4415C48.9641 10.5618 49.0887 11.0394 49.1344 10.9371C50.0381 13.2221 50.3636 15.6024 50.3479 17.9286C50.2895 16.6155 50.212 15.0636 49.8995 13.668C49.8601 13.4712 49.7054 12.8274 49.6841 12.9169C49.9954 14.1043 50.2259 15.5943 50.2535 16.7441C50.2546 16.7814 50.2101 16.6466 50.2117 16.7865C50.2191 17.0601 50.2941 17.8612 50.2748 18.0097C50.2722 18.0327 50.22 17.5609 50.1899 17.7048C50.1127 18.0723 50.2884 18.1673 50.28 18.4915C50.2777 18.6882 50.1884 19.6529 50.1221 20.3154C50.1009 20.5446 50.0787 20.7335 50.0743 20.8453C50.0607 21.105 50.1399 20.7315 50.1847 20.3213C50.2234 19.9833 50.253 19.6311 50.2717 19.6914C50.2659 19.9009 50.2542 20.1127 50.2373 20.3262C50.1526 21.3875 49.8264 22.3757 49.4697 23.2365C49.4618 23.2556 49.5654 23.1053 49.4687 23.3472C49.3 23.7568 49.199 23.8345 49.0968 24.0229C48.9869 24.2357 48.6066 24.9248 48.5298 25.006C48.5209 25.0163 48.559 24.8512 48.5698 24.8295C48.7254 24.5211 48.8399 24.4458 48.8563 24.4187C48.9139 24.3183 48.9482 24.198 48.9997 24.1008C49.0846 23.9398 49.151 23.8608 49.2544 23.6445C49.3247 23.495 49.217 23.6208 49.2843 23.4771C49.3095 23.4341 49.6566 22.8655 49.5725 22.7711C49.5658 22.756 49.0763 23.9978 48.3699 25.089C47.6797 26.1972 46.8292 27.2158 46.6917 27.4039C46.9601 27.0991 47.2301 26.7773 47.4881 26.4509C46.9566 27.1216 46.3744 27.9246 46.2297 27.8974C44.2041 30.201 41.9651 32.135 39.7459 34.0349C39.3435 34.3658 39.5076 34.1187 38.8725 34.6923C39.0571 34.5688 39.2425 34.4444 39.4272 34.3204C39.0806 34.5939 37.5849 35.8217 37.3621 36.0362C37.3331 36.0641 37.3369 36.1571 36.9776 36.4749C36.6598 36.7564 36.5735 36.7587 36.3938 36.9009C36.2436 37.0199 36.0925 37.1713 36.0482 37.2061C36.0141 37.2328 35.979 37.2187 35.8972 37.2827C35.6396 37.4854 35.9027 37.3798 35.5854 37.5148C35.6429 37.4584 35.6992 37.4031 35.7556 37.3479C35.4477 37.598 35.0092 37.9239 35.4304 37.5159C35.5032 37.4457 35.4599 37.5276 35.5163 37.4776C37.729 35.536 35.9062 37.0324 35.1767 37.7548C34.9462 37.8904 33.8854 38.908 33.8481 38.9364C33.7892 38.9734 33.9459 38.7714 33.6828 38.9752C33.6163 39.0137 32.2675 40.4045 32.7133 39.8652C32.8037 39.7502 33.4765 39.1078 33.6431 38.9503C33.181 39.2411 32.4162 40.225 32.3252 40.3233C31.9274 40.7186 33.0017 39.4852 32.124 40.3902C31.4667 41.0908 32.1252 40.4742 31.8992 40.7647C31.7696 40.9209 31.0188 41.694 31.1189 41.7354C30.8983 42.0298 30.9919 41.8293 30.9606 41.8626C30.9256 41.8965 30.5288 42.4734 30.3884 42.6538C30.3708 42.6751 30.3774 42.5751 30.3581 42.5963C30.3158 42.6368 29.9706 43.2026 29.9657 43.2302C29.9596 43.2462 30.0778 43.1334 30.0541 43.1945C30.0191 43.2666 29.7228 43.7986 29.7243 43.8384C29.7139 43.886 30.0588 43.2152 30.0449 43.3508C29.8565 43.6434 29.6496 44.1678 29.6185 44.3791C29.6258 44.322 29.7441 44.0339 29.7994 43.9311C29.8314 44.0118 29.5871 44.6332 29.6163 44.3996C29.5948 44.5479 29.6444 44.4597 29.6448 44.5457C29.6436 44.5686 29.5846 44.7573 29.5879 44.7955C29.5878 44.8011 29.6738 44.6175 29.676 44.6605C29.6682 44.7383 29.5323 45.2921 29.5308 45.329C29.49 45.4509 29.5403 45.0066 29.5285 44.9552C29.5203 44.9496 29.3854 45.3268 29.3845 45.3309C29.3188 45.3483 29.4445 44.9152 29.3879 44.9526C29.3507 45.0623 29.3186 45.1704 29.2916 45.2773C29.2813 44.8459 29.6273 44.0271 29.6918 43.7901C29.3728 44.4594 29.2408 45.1409 29.1141 45.1159C29.0563 45.1073 29.0895 44.8048 29.0754 44.8115C29.0088 44.8459 28.9844 45.2676 28.9852 45.2789C28.9805 45.2907 28.9768 45.2958 28.9739 45.2954C28.9739 45.2954 28.9739 45.2954 28.9738 45.2954C28.9335 45.2966 29.0342 44.6987 29.0402 44.6638C29.0305 44.6046 28.8622 44.8507 28.8425 44.8467C28.8357 44.8348 28.9378 44.3927 28.8587 44.5285C28.7726 44.6627 28.6857 45.0634 28.6836 45.0736C28.6366 45.1474 28.7785 44.4478 28.7833 44.4272C28.7774 44.4127 28.6327 44.7721 28.6212 44.7831C28.6054 44.7895 28.6533 44.4949 28.6542 44.3722C28.6529 44.2792 28.556 44.5181 28.5652 44.4738C28.5596 44.4449 28.8078 43.7674 28.8236 43.7418C28.8371 43.6912 28.7405 43.8299 28.7421 43.8045C28.7427 43.7684 28.8478 43.5619 28.8244 43.5842C28.7955 43.5901 28.3625 44.4033 28.3484 44.3932C28.2885 44.3699 28.7374 43.4763 28.2342 44.2771C28.2297 44.2834 28.1833 44.4983 28.1808 44.5063C28.1086 44.6325 28.2308 43.9074 28.0235 44.7817C28.4089 43.1591 27.9883 44.5538 27.9694 44.2922C27.9525 44.1923 28.176 43.5483 28.1757 43.5536C28.1105 43.592 28.0624 43.808 28.018 43.869C27.9884 43.8995 28.1704 43.3265 28.0922 43.4397C28.0465 43.4873 27.8237 44.1065 27.821 44.1299C27.7192 44.3646 27.7803 44.0571 27.7446 44.1042C27.7177 44.1336 27.6116 44.5166 27.6093 44.5289C27.5962 44.5406 27.6863 44.0068 27.711 43.8941C27.724 43.8073 27.5995 44.1071 27.6125 44.0482C27.6799 43.6832 28.0781 43.0106 27.6671 43.6488C27.6411 43.6891 27.5505 43.9608 27.5476 43.9684C27.4538 44.1242 27.6174 43.6224 27.6279 43.5211C27.6338 43.3455 27.3894 44.0824 27.5811 43.4648C27.3723 43.9071 27.2881 44.1538 27.1814 44.7296C27.3236 43.9317 27.5053 43.4436 27.5091 43.318C27.5271 43.1982 27.3345 43.4424 27.1011 44.3073C27.2532 43.7573 27.1696 43.8 27.2216 43.6362C27.2505 43.5234 27.6429 42.8221 27.3292 43.0863C27.2878 43.1147 27.13 43.5986 27.1442 43.4336C27.6159 42.3342 27.123 43.3845 27.1196 43.3975C26.9478 43.2754 28.4371 40.8148 28.7588 40.5068C29.0771 40.0631 29.3185 39.6495 29.3939 39.5604C29.6439 39.2689 29.4689 39.5389 29.5368 39.484C29.6062 39.4189 30.2609 38.5739 30.3076 38.5378C30.4652 38.3976 30.3556 38.5876 30.3726 38.5735C30.5683 38.4008 31.5421 37.3673 31.8401 37.1084C31.8067 37.0928 31.2354 37.6428 31.5539 37.2601C31.9284 36.8137 32.057 36.8967 32.0716 36.891C33.9867 35.0888 35.9853 33.4353 37.9227 31.7661C37.8497 31.7279 36.6116 32.8627 36.5755 32.8796C36.3673 32.9789 38.5207 31.1399 38.7935 30.9322C38.5849 31.0917 38.375 31.2513 38.165 31.4103C38.4476 31.0494 39.2704 30.4874 39.7248 30.0284C39.8713 29.8806 39.5506 30.1203 39.555 30.113C39.7072 29.9319 40.0026 29.7026 39.8256 29.9236C40.2188 29.5111 40.1919 29.6011 40.5164 29.3104C40.533 29.2954 40.3713 29.3949 40.6146 29.1514C40.7279 29.04 41.3581 28.4496 41.4161 28.3484C41.4412 28.3066 41.0313 28.5031 41.0738 28.6274C40.3494 29.2229 40.8927 28.8716 40.6246 29.1161C40.5818 29.1533 40.6369 29.0172 39.9748 29.6583C40.0284 29.4499 40.8608 28.81 40.9836 28.6718C41.235 28.3983 40.073 29.391 39.9191 29.6499C39.954 29.4914 39.8305 29.7133 39.5712 29.9389C39.2868 30.186 39.3909 30.0559 39.2378 30.1911C38.8167 30.5609 39.0359 30.457 38.6487 30.7154C39.111 30.5596 38.0675 31.254 37.7593 31.453C38.2009 31.0608 38.6407 30.6672 39.0743 30.273C39.0426 30.2879 39.0109 30.3028 38.9792 30.3177C39.0966 30.2164 39.2135 30.1151 39.3299 30.0138C39.3176 30.0372 39.3053 30.0606 39.2929 30.084C39.8471 29.5115 40.0331 29.4317 40.0824 29.3888C40.7047 28.8365 41.3967 28.1879 41.9874 27.6019C42.0751 27.5125 41.9736 27.5385 42.6378 26.9239C42.8466 26.7279 42.695 26.9556 42.9122 26.7165C43.0925 26.3371 43.1629 26.4096 43.2446 26.3212C43.4782 26.0658 43.5894 25.8895 43.6101 25.8658C43.8844 25.5481 44.2796 25.083 44.5526 24.719C44.5574 24.712 44.3814 24.8752 44.5711 24.6484C44.637 24.5714 45.3362 23.9309 45.6854 23.2284C45.5704 23.3988 45.4525 23.5645 45.331 23.7281C45.5067 23.545 46.2456 22.0764 46.0121 22.4104C45.884 22.6176 45.6848 23.1873 45.5556 23.1933C45.9276 22.7849 46.792 20.5124 46.7288 19.9998C46.7359 19.935 46.7415 19.8899 46.7455 19.8677C46.7506 19.8404 46.7605 19.967 46.7684 20.0035C46.7709 20.0118 46.7732 20.0141 46.775 20.0055C46.7751 20.0051 46.7752 20.0046 46.7752 20.0041C46.7865 19.946 46.8341 19.2156 46.849 19.1234C46.8603 19.0656 46.8616 19.392 46.8751 19.3667C46.8901 19.3365 46.9449 18.4439 46.899 18.3771C46.9136 18.6125 46.8684 19.2255 46.848 18.8986C46.8458 18.8561 46.8815 18.6404 46.8771 18.59C46.8428 18.1172 46.802 19.5247 46.7695 19.7653C46.7985 18.8417 46.8896 17.4768 46.7612 16.4381C46.7637 16.0221 46.8611 17.0496 46.8557 16.577C46.8324 15.6056 46.7856 16.3242 46.7789 16.2935C46.7292 16.0687 46.8075 15.213 46.6595 15.2394C46.624 14.8912 46.6666 15.0076 46.5509 14.5228C46.5544 14.589 46.5574 14.6555 46.56 14.7223C46.3861 14.1893 46.2718 13.0521 46.3042 13.1234C46.4207 13.3331 46.5112 13.9315 46.5218 13.9795C46.5374 14.0481 46.7537 14.2326 46.766 15.0769C46.9337 15.4004 46.5743 13.7529 46.7945 14.4935C46.7229 13.9709 46.121 11.9456 45.9167 11.7081C45.8948 11.6774 45.8819 11.8714 45.7037 11.3837C45.6169 11.1514 45.8782 11.6871 45.8483 11.5751C45.8069 11.4003 45.273 10.2488 44.4314 9.21609C43.6111 8.16834 42.4956 7.28582 42.129 7.02354C42.0818 6.98858 42.1174 6.97678 42.0707 6.94266C41.929 6.83505 41.3689 6.50497 41.1026 6.32844C41.6327 6.72696 40.5439 6.04863 40.2496 5.89994C39.8134 5.65841 39.8619 5.62777 39.6723 5.52113C38.9399 5.10512 37.6685 4.76145 37.0723 4.45686C37.0739 4.5764 35.9919 4.06944 35.4575 3.95134C35.044 3.85133 34.4231 3.80584 34.9743 3.97063C34.26 3.80927 33.4934 3.70132 32.8094 3.61778C32.6958 3.60399 32.8566 3.58955 32.6625 3.56752C32.6448 3.56589 32.6162 3.59656 32.4498 3.57989C31.0752 3.4589 31.7479 3.46328 31.4927 3.41483C31.3492 3.39008 31.2432 3.37563 31.1652 3.36759C31.9724 3.42003 32.8979 3.52853 33.1433 3.56523C32.946 3.44911 31.3622 3.36143 30.9043 3.3213C30.8882 3.31944 30.9474 3.28151 30.931 3.28008C30.9307 3.28005 30.9303 3.28003 30.93 3.28001C30.7531 3.2591 29.6512 3.22556 29.8752 3.28639C29.9394 3.30228 30.4404 3.31916 31.0464 3.35958C30.8841 3.35723 31.0014 3.41281 30.9727 3.41275C30.6198 3.40769 29.7729 3.32299 29.4664 3.31241C29.3971 3.30944 29.4015 3.33969 29.3902 3.3395C29.1152 3.32747 29.231 3.24318 28.9462 3.32887C28.4461 3.2154 29.8808 3.327 29.7831 3.26069C29.7074 3.16631 26.5037 3.25484 26.5226 3.37555C26.5112 3.36731 26.467 3.35903 26.3778 3.35276C26.1715 3.33585 25.2986 3.42777 25.1424 3.46513C25.1171 3.47115 25.1368 3.55128 25.1052 3.55576C25.0747 3.56013 24.8927 3.57205 24.6668 3.59368C24.6616 3.59423 24.6462 3.59647 24.641 3.59693C24.2891 3.6228 23.7845 3.68359 23.549 3.75245C23.7687 3.72874 23.9723 3.70994 24.1964 3.69105C22.9057 3.88167 23.099 3.89181 23.5422 3.83862C23.564 3.83532 23.5855 3.83501 23.6062 3.83205C23.9381 3.79639 24.3726 3.75683 24.3781 3.76308C24.3975 3.76379 22.2267 4.15235 22.6265 4.01041C22.6914 3.98301 23.6969 3.84177 23.1925 3.87446C23.1092 3.87728 22.4483 4.01858 22.4198 4.02006C22.1806 4.02167 23.5922 3.70634 23.4149 3.68554C23.0792 3.79516 22.6196 3.85157 22.2345 3.94609C22.0556 3.98975 22.019 4.04007 21.9969 4.04555C21.6627 4.12952 21.8415 4.04649 21.7317 4.07191C21.6753 4.08348 21.0427 4.32816 21.136 4.1765C19.0151 4.83247 20.5626 4.3911 21.8792 4.09217C21.4753 4.22529 20.6566 4.40537 20.293 4.51801C20.162 4.55794 20.2509 4.5768 20.0357 4.64569C19.5807 4.77158 17.4421 5.42703 16.9006 5.64764C17.2308 5.50437 17.1166 5.49878 16.8581 5.60236C16.6008 5.7067 16.8399 5.67867 16.792 5.70455C16.741 5.72538 15.5329 6.19782 15.3436 6.30002C16.2244 5.88791 16.0065 5.93057 15.2474 6.26369C15.3513 6.20206 15.4553 6.14109 15.5596 6.08078C15.1196 6.28941 14.1701 6.67074 13.932 6.82091C13.8945 6.84383 14.0522 6.80641 14.0311 6.81933C13.8193 6.94136 13.0651 7.305 13.0399 7.33732C13.0165 7.36242 13.3423 7.21919 13.2348 7.29668C13.2126 7.31268 12.8878 7.43213 12.6029 7.61409C12.4973 7.68148 12.5808 7.67473 12.5547 7.6925C12.3383 7.84178 12.4388 7.70752 12.036 7.96624C11.742 8.15802 11.5548 8.34774 11.1455 8.60178C12.5096 7.79642 11.371 8.48794 10.8486 8.89057C10.7656 8.95575 10.8737 8.95196 10.3505 9.30037C11.3613 8.41304 9.99736 9.4696 9.73309 9.69885C9.71792 9.7107 9.68508 9.68047 9.55109 9.7892C9.53991 9.79855 9.57444 9.80771 9.45279 9.91164C8.32063 10.9165 9.03238 10.2602 8.79586 10.4274C8.69366 10.4985 8.18951 11.0339 8.05475 11.1772C8.02303 11.2096 8.01548 11.1728 7.89382 11.2995C7.67932 11.5239 7.51647 11.7506 7.3832 11.9048C7.36827 11.923 7.32811 11.8903 7.08954 12.1941C7.02277 12.2798 6.95845 12.3843 7.06757 12.2751C7.42423 11.9113 8.03213 11.1471 8.4912 10.7825C8.89886 10.4439 7.70723 11.6106 7.66364 11.6856C7.64203 11.7089 7.8453 11.4549 7.61765 11.6934C7.42252 11.898 7.14836 12.3377 6.87655 12.6518C6.85523 12.6749 6.59491 12.8946 6.60156 12.8803C6.60557 12.8669 6.91228 12.4543 6.85061 12.5004C6.84261 12.5054 6.64019 12.7619 6.60272 12.7869C6.5564 12.8164 6.32595 12.8189 6.28003 12.8731C6.16332 13.0116 6.26665 12.9417 6.19529 13.0341C6.03715 13.229 5.5141 13.9242 5.5569 13.9845C5.63589 13.8651 5.7164 13.7469 5.79838 13.63C5.37233 14.301 5.58216 14.0327 5.53117 14.1334C5.47952 14.2434 5.44777 14.1859 5.30845 14.4134C5.26975 14.4571 4.75721 15.4548 4.79642 15.4487C5.03579 14.8814 4.99932 15.1165 5.01165 15.0918C5.06536 14.9977 5.09621 14.8575 5.16705 14.7306C5.67726 13.8489 5.21882 14.7697 5.35209 14.569C5.3973 14.4999 5.45176 14.3424 5.47171 14.3126C5.53519 14.217 5.57302 14.2379 5.6097 14.1711C5.69605 14.0156 5.53537 14.1603 5.54007 14.1469C5.58865 13.9885 5.97002 13.4932 5.81366 13.8536C5.96008 13.6724 5.90839 13.6061 6.03938 13.4711C6.30116 13.2056 5.97297 13.6478 5.90301 13.7778C5.64809 14.2449 5.53339 14.3599 5.18564 15.0243C5.0608 15.2664 4.95819 15.5674 4.90743 15.6816C4.8716 15.7493 4.45015 16.3822 4.64403 16.482C4.5179 16.7368 4.23014 17.1198 4.1469 17.404C4.07152 17.6607 4.16985 17.602 4.16499 17.6266C4.15751 17.6638 4.06043 17.9731 4.04278 18.0825C4.02217 18.2078 4.06555 18.1539 4.02701 18.3512C3.93538 18.8441 3.86918 18.8186 3.85195 18.8679C3.6733 19.4507 3.83631 19.2095 3.81906 19.3423C3.799 19.4408 3.59316 20.6155 3.57298 21.259C3.56552 21.4017 3.56293 21.5148 3.56486 21.5826C3.55894 21.4753 3.55394 21.367 3.54991 21.2576C3.54804 21.2102 3.54636 21.1629 3.54487 21.1156C3.53339 21.162 3.52581 21.2093 3.52073 21.2559C3.4958 21.4858 3.52981 21.688 3.45856 21.6896C3.59296 21.7527 3.4878 22.3092 3.49455 22.4723C3.49637 22.5371 3.51991 22.5319 3.52181 22.6124C3.5254 22.9451 3.54808 23.6697 3.57813 23.834C3.68786 24.5679 3.6293 22.6694 3.66076 22.5083C3.63856 22.8278 3.80411 24.4931 3.80862 23.7244C3.80911 23.6069 3.73363 23.4 3.72776 23.332C3.68948 22.8725 3.7623 23.2323 3.76579 23.1959C3.77075 23.1351 3.70647 22.8307 3.71199 22.7476C3.71427 22.7233 3.76478 22.8849 3.76208 22.4547C3.79933 22.6691 3.82467 23.8969 3.86431 24.0507C3.87892 24.1039 3.92533 23.75 3.96496 24.7851C3.97274 24.7719 3.98053 24.7587 3.98834 24.7456C4.07604 25.302 4.20117 25.8695 4.35967 26.409C4.32107 26.356 4.19157 26.0555 4.31011 26.4452C4.38066 26.6671 4.37997 26.4877 4.38731 26.5078C4.33614 26.7473 5.87689 30.0342 6.45577 30.5014C6.60088 30.6904 7.07563 31.1678 7.11283 31.2009C7.31309 31.4296 8.09027 32.195 8.27066 32.3252C8.37773 32.4104 8.30475 32.2952 8.39717 32.3747C8.48337 32.4483 8.36723 32.4045 8.39213 32.4273C8.57284 32.6447 10.3735 33.825 10.8333 34.0804C10.5506 33.933 9.19034 33.1456 9.20907 33.174C9.21121 33.1815 9.50818 33.4244 9.58317 33.4549C9.67258 33.5579 10.1056 33.7099 10.3059 33.8522C10.329 33.8679 10.2023 33.8655 10.577 34.0951C10.7064 34.174 11.0738 34.3269 11.409 34.5547C11.9064 34.8475 14.7757 36.0337 15.0249 35.9977C15.0319 35.997 14.6194 35.8416 14.9106 35.9075C15.2968 35.9922 14.9243 36.0002 15.3599 36.143C15.4279 36.1725 16.672 36.4976 16.7189 36.4948C17.1144 36.5264 16.0237 36.2235 16.0469 36.2169C16.084 36.2109 16.9992 36.4316 17.0318 36.4403C17.0666 36.4536 16.3076 36.362 17.2025 36.5406C17.1004 36.5064 17.0045 36.4731 16.905 36.4384C17.321 36.5168 17.3585 36.5847 17.4582 36.6111C17.7735 36.6924 18.1372 36.6758 18.6283 36.8807C18.7572 36.9347 18.5282 36.9269 18.544 36.9343C18.697 37.0036 18.9276 36.935 19.1631 37.0555C19.1791 37.0631 18.6008 37.0214 19.5999 37.1796C19.5301 37.1612 19.4658 37.1435 19.3981 37.125C19.5378 37.1338 20.5662 37.2644 20.707 37.2805C21.1054 37.3375 20.7412 37.3535 21.1553 37.3907C20.9046 37.2925 22.1384 37.3945 22.0591 37.4488C22.1963 37.3901 22.9973 37.4754 23.4741 37.4857C23.6322 37.488 23.7751 37.4979 23.8975 37.5097C24.43 37.5225 25.4495 37.8753 25.5739 37.9732C25.7433 38.0704 25.6701 38.0868 25.9519 38.2777C26.0392 38.3203 26.8784 38.8876 27.3023 39.5354C27.3899 39.6581 27.4972 39.9599 27.3144 39.7592C27.0219 39.4138 26.3866 38.7216 26.3448 38.7778C26.3469 38.8197 27.2344 39.6679 27.3819 39.9351C28.1441 41.125 27.6242 40.4822 27.6373 40.523C27.6544 40.6242 28.0126 41.2649 28.0162 41.2953C28.0579 41.4149 27.7862 40.976 27.7543 40.9844C27.7236 40.9948 27.979 41.6391 27.8952 41.5049C27.7872 41.3123 27.5197 40.7293 27.4902 40.696C27.1727 40.2633 27.4972 40.9282 27.547 41.1195C27.5649 41.1775 27.4297 40.9822 27.4506 41.027C27.7592 41.71 27.6386 41.106 27.8551 41.5556C28.037 41.9592 27.7402 41.4707 27.743 41.4884C27.7528 41.5087 27.9741 41.9855 27.9848 42.0691C28.0092 42.1023 27.2963 40.935 27.264 41.0202C27.4949 41.3897 27.6954 41.7708 27.8741 42.1589C27.8312 42.2138 27.62 41.6361 27.5804 41.5825C27.5112 41.4735 27.6411 41.8089 27.6147 41.8039C27.6003 41.8011 27.3745 41.4488 27.5231 41.7941C27.572 41.9125 27.733 42.1389 27.8602 42.5891C27.1659 41.1235 27.5808 42.1716 27.5803 42.2206C27.5777 42.2712 27.2214 41.596 27.6004 42.4398C27.499 42.5247 27.5583 42.4362 27.4326 42.205C27.27 41.927 27.5647 42.6063 27.0696 41.546C27.0601 41.6286 27.4586 42.4726 27.4638 42.5234C27.4762 42.5642 27.37 42.3848 27.3894 42.4565C27.6058 43.3041 27.4333 42.7317 27.4557 42.9908C27.4616 43.0118 27.6948 43.7895 27.4872 43.2086C27.0926 42.1598 26.9095 41.7159 26.6693 41.636C27.0048 42.3833 27.4385 43.2817 27.5144 43.524C27.632 43.8889 27.4787 43.5206 27.483 43.5691C27.4856 43.5846 27.5844 43.9005 27.5816 43.9051C27.5323 44.1658 27.1392 42.507 26.8463 42.0476C26.891 42.1849 26.9325 42.3232 26.9709 42.4614C26.8928 42.2852 26.8096 42.1108 26.7213 41.9397C27.0826 42.785 26.7285 41.968 26.5197 41.8255C26.4746 41.7928 26.7895 42.2947 26.4106 41.7331C26.6321 42.1773 26.5386 42.0457 26.758 42.4411C26.7209 42.4423 26.2284 41.5605 25.9781 41.2672C26.6451 42.4658 26.4112 41.707 26.8337 42.847C26.9703 43.0364 26.7381 42.5009 26.7626 42.5421C26.8616 42.6864 26.9694 43.0717 27.2299 43.4984C27.2721 43.5688 27.2232 43.2281 27.3736 43.7064C27.3912 43.7607 27.4327 44.08 27.4273 44.0769C27.3798 44.0457 27.3048 43.7414 27.2844 43.7329C27.2677 43.7265 27.3755 44.0584 27.3708 44.0618C27.3281 44.0845 27.2719 43.787 27.2694 43.8333C27.2672 43.9357 27.5092 45.158 27.0821 43.591C27.518 44.8716 27.2027 43.734 26.9977 43.2468C26.947 43.1232 26.9083 43.1001 26.8298 42.9276C26.7283 42.7049 26.6244 42.44 26.5653 42.3289C26.4993 42.2127 26.7786 42.9204 26.3037 41.9301C26.5172 42.4426 26.953 43.3457 27.0608 43.8984C27.2783 44.9986 26.7345 43.182 26.6225 43.0196C26.6012 42.9723 26.6286 43.1483 26.6137 43.1169C26.6014 43.0587 26.1844 42.0917 26.0947 42.0276C26.0196 41.9523 26.2724 42.3627 26.2536 42.4086C26.2563 42.4227 25.6143 41.3791 25.9315 41.9599C26.1552 42.3519 26.5736 43.1238 26.5277 43.299C26.278 42.6524 25.9711 42.0334 25.5983 41.503C25.768 41.8161 25.9143 42.1514 26.0407 42.4979C25.7032 41.8312 25.3815 41.2669 24.9011 40.8762C25.8198 42.0774 24.5139 40.5545 24.4715 40.6662C24.466 40.659 24.8088 41.0655 24.8515 41.1543C24.6701 40.9796 24.3053 40.7113 24.0745 40.6482C23.8408 40.581 23.7447 40.5924 23.9994 40.7441C23.9066 40.6692 23.6507 40.6855 23.6555 40.6954C23.6786 40.7236 24.1828 40.8868 24.0826 40.9057C23.9637 40.9044 23.8689 40.783 23.7224 40.7596C23.6278 40.7449 23.5468 40.7476 23.4741 40.7584C22.3343 40.8095 22.4832 41.0283 20.9175 40.8544C20.9527 40.8676 20.9877 40.8809 21.0225 40.894C19.0655 40.6891 17.1429 40.3342 15.2387 39.8108C14.4722 39.7094 12.4825 39.1213 11.5429 38.7024C11.3478 38.626 10.4411 38.1733 10.3751 38.1281C10.2522 38.0557 10.9646 38.3781 10.6553 38.2055C10.5833 38.1831 9.05443 37.386 9.14467 37.4736C9.31207 37.574 9.86268 37.8322 9.94642 37.8841C10.4926 38.3737 5.90504 35.54 5.76998 35.2231C5.85285 35.3134 5.93659 35.4028 6.02113 35.4912C5.75769 35.2671 5.49876 35.0339 5.24684 34.7929ZM19.7432 37.0126C19.9324 36.9935 20.3458 37.0856 20.6188 37.1044C20.972 37.1299 21.6051 37.0075 21.3242 37.1629C20.79 37.1252 20.2731 37.076 19.7432 37.0126ZM12.4166 34.8896C12.7211 35.0513 12.4355 35.0384 12.1949 34.882C12.1682 34.8641 12.0069 34.6668 12.4166 34.8896ZM15.8365 36.164C15.8221 36.1617 15.5295 36.0749 15.5195 36.0699C15.2683 35.9553 16.1489 36.2163 15.8365 36.164ZM4.01264 25.3414C4.08992 25.7003 4.12544 25.4232 4.04637 25.2049C4.04127 25.1911 4.00764 25.3176 4.01264 25.3414ZM4.06258 25.5975C4.03971 25.8962 4.34329 26.3905 4.21751 25.9674C4.20455 25.9277 4.06293 25.5852 4.06258 25.5975ZM13.5398 35.3981C13.4921 35.4143 13.1646 35.2698 13.0262 35.2039C13.0409 35.1794 13.3988 35.349 13.5398 35.3981ZM6.38554 30.477C6.34512 30.4863 7.11169 31.3754 7.20037 31.4004C7.05353 31.2848 6.4016 30.4774 6.38554 30.477ZM4.83355 27.9488C4.83955 27.9777 5.01255 28.3379 5.02921 28.3184C4.96733 28.1261 4.79964 27.822 4.83355 27.9488ZM3.76241 22.0411C3.75921 22.0165 3.60541 22.3362 3.72409 21.5797C3.74201 21.4686 3.76247 21.869 3.76958 21.8289C3.78194 21.7469 3.78906 21.6815 3.7921 21.6288C3.78799 21.9843 3.79257 22.3384 3.78423 22.3725C3.74346 22.534 3.76295 22.0527 3.76241 22.0411ZM4.03261 18.8006C4.02427 18.7251 4.14262 18.2889 4.17954 18.1943C4.18602 18.1776 4.22304 18.2677 4.27235 18.0708C4.31336 17.9119 4.18667 18.1308 4.28491 17.8263C4.38668 17.5208 4.3051 17.9451 4.31682 17.9191C4.32926 17.883 4.45009 17.4021 4.48077 17.4289C4.50051 17.4466 4.32697 17.9465 4.29943 18.0773C4.26203 18.2419 4.35682 18.0573 4.27671 18.323C4.22763 18.4905 4.17673 18.3779 4.16381 18.4128C4.15038 18.4405 4.05702 19.0553 4.03306 18.7997C4.03291 18.8 4.03276 18.8003 4.03261 18.8006ZM3.79297 21.5326C3.79432 21.5595 3.79428 21.5909 3.7921 21.6288C3.7924 21.5966 3.79262 21.5644 3.79297 21.5326ZM18.7241 36.8807C18.5462 36.8247 19.0945 36.8918 19.2936 36.9541C19.2968 36.9812 18.746 36.8896 18.7241 36.8807ZM3.74857 21.1979C3.79447 20.7809 3.80089 20.949 3.79617 21.2726C3.7952 21.3527 3.79398 21.4415 3.79297 21.5326C3.78684 21.4062 3.74737 21.3814 3.74522 21.2695C3.74481 21.249 3.74575 21.2255 3.74857 21.1979ZM9.58317 33.4549C9.56835 33.4381 9.56195 33.423 9.56873 33.4097C9.607 33.4548 9.60653 33.4648 9.58317 33.4549ZM8.63348 32.7368C8.28529 32.5211 8.93878 33.0292 8.95674 32.9964C8.96116 32.986 8.64655 32.7463 8.63348 32.7368ZM3.93535 24.88C3.93787 24.9172 3.71011 24.3769 3.94685 25.1752C3.88705 24.7385 3.98002 25.1903 3.99208 25.1851C4.01745 25.1575 3.87155 24.4417 3.87145 24.2668C3.79378 24.1448 3.92739 24.763 3.9352 24.8791C3.93525 24.8794 3.9353 24.8797 3.93535 24.88ZM6.38988 13.5501C6.35946 13.655 6.16769 13.9159 6.04874 14.0997C6.07321 13.9936 6.26072 13.7294 6.38988 13.5501ZM44.7328 24.415C45.5811 23.1628 45.787 23.0709 44.9678 24.1861C44.9526 24.2071 44.6903 24.498 44.7328 24.415ZM45.9079 12.4104C45.9162 12.2567 46.0962 12.6852 46.1635 12.9778C46.1799 13.0447 46.1958 13.3047 46.095 13.0347C46.1716 13.0171 46.0583 12.5937 45.9079 12.4104ZM3.72955 20.9018C3.69841 20.7457 3.77517 20.2961 3.81622 20.0557C3.82859 20.2102 3.75888 20.6846 3.72955 20.9018ZM46.768 20.2798C46.7922 20.1465 46.7452 20.0518 46.7384 20.0741C46.7082 20.172 46.7139 20.4268 46.768 20.2798ZM3.6619 22.4139C3.63427 22.4373 3.61859 21.8226 3.68547 21.7789C3.67444 21.9139 3.67637 22.4003 3.6619 22.4139ZM6.14108 13.882C6.0773 13.9533 6.33049 13.5338 6.42936 13.421C6.44296 13.4456 6.18015 13.8346 6.14108 13.882ZM46.8789 17.6988C46.8828 17.553 46.8732 17.2002 46.8484 17.1607C46.8199 17.1147 46.8454 17.631 46.8789 17.6988ZM29.6872 38.8631C29.6636 38.8723 30.0477 38.3447 30.2643 38.1481C30.664 37.7787 29.7002 38.8474 29.6872 38.8631ZM46.4642 21.568C46.2693 21.9338 46.4799 21.5246 46.4197 21.5231C46.3325 21.7796 46.0371 22.4186 46.2828 22.0025C46.3314 21.9188 46.418 21.6867 46.4642 21.568ZM46.6014 21.2193C46.5986 21.1712 46.6222 20.88 46.5578 21.1197C46.5274 21.2301 46.528 21.4312 46.6014 21.2193ZM32.4677 36.0635C32.8367 35.7851 31.2759 37.2036 31.2323 37.2487C31.2062 37.2678 31.1882 37.2794 31.1772 37.2851C31.1346 37.3478 30.8469 37.6371 30.7862 37.643C30.8744 37.5584 31.1094 37.3215 31.1379 37.3C31.1508 37.2899 31.1608 37.2827 31.168 37.2781C31.2402 37.1509 32.3945 36.1113 32.4677 36.0635ZM35.0853 33.8216C34.7418 34.2126 34.5934 34.1788 34.6241 34.1468C35.0152 33.7427 34.798 34.0502 34.8137 34.0421C34.8478 34.022 35.1225 33.73 35.084 33.8226C35.0844 33.8223 35.0849 33.8219 35.0853 33.8216ZM33.0082 35.6004C32.9925 35.6163 32.6692 35.9035 32.6523 35.9167C32.3583 36.1269 33.2834 35.3049 33.0082 35.6004ZM4.67025 16.4575C4.78597 16.208 4.72426 16.4735 4.64299 16.6378C4.63631 16.6514 4.56985 16.6792 4.67025 16.4575ZM46.6455 21.0253C46.6646 20.9921 46.829 20.4004 46.8482 20.0109C46.8695 19.7348 46.8713 19.5389 46.8443 19.5739C46.8435 19.6134 46.83 19.7834 46.8077 20.0071C46.7752 20.4805 46.5375 21.2629 46.6455 21.0253ZM44.3691 9.49623C44.5389 9.72014 44.3032 9.51452 44.229 9.38402C44.2015 9.33513 44.326 9.43975 44.3691 9.49623ZM3.62406 23.2474C3.67606 23.5469 3.55338 23.4924 3.58029 23.2271C3.58139 23.2167 3.62209 23.2356 3.62406 23.2474ZM45.5254 11.4146C45.0332 10.5821 45.3536 10.6598 45.8349 11.8468C45.8105 11.8144 45.7861 11.7821 45.7615 11.7501C46.3005 13.1152 45.8021 11.8366 45.6288 11.5278C45.565 11.4062 45.5847 11.5243 45.5256 11.4156C45.5255 11.4153 45.5254 11.4149 45.5254 11.4146ZM43.3942 8.38188C42.8214 7.6156 44.0513 8.94372 44.3541 9.35756C43.9995 9.00516 43.5732 8.51754 44.1017 9.22367C43.2504 8.26329 43.6333 8.63601 43.6078 8.58979C43.5702 8.54169 43.4185 8.41456 43.3942 8.38188ZM44.94 10.2973C44.9737 10.3387 45.1639 10.7044 45.2376 10.8285C45.0993 10.6718 44.722 10.0127 44.94 10.2973ZM37.7673 31.4834C37.7635 31.5379 37.7105 31.6214 37.4239 31.8479C37.4969 31.7597 37.6628 31.5953 37.7673 31.4834ZM20.0482 37.2625C20.2755 37.2976 20.7653 37.3707 20.6202 37.3121C20.6033 37.3078 20.0495 37.2407 20.0482 37.2625ZM46.8973 16.3354C46.91 16.2904 46.7488 15.028 46.7638 15.4692C46.7806 15.607 46.8924 16.7393 46.8973 16.3354ZM46.0915 22.5071C46.1402 22.4163 46.3003 22.0509 46.2928 22.0403C46.2775 22.0026 46.0884 22.4527 46.0915 22.5071ZM21.2504 37.4444C21.2823 37.4538 22.0124 37.5088 21.9344 37.4822C21.7764 37.4364 21.1476 37.4212 21.2504 37.4444ZM4.99698 15.4995C5.02116 15.4465 5.09318 15.3964 5.10256 15.3788C5.11575 15.3332 5.61806 14.389 5.46755 14.7724C5.42554 14.8273 4.73061 16.1927 4.67004 16.3829C4.58455 16.4321 4.89242 15.8494 4.95846 15.7051C4.96948 15.6793 4.93272 15.642 4.99699 15.5001C4.99698 15.4999 4.99698 15.4997 4.99698 15.4995ZM36.3464 32.7525C36.3298 32.8147 35.2896 33.7356 35.2708 33.6938C35.6304 33.3779 35.9872 33.0662 36.3464 32.7525ZM36.8858 32.3002C37.1276 32.1281 36.6066 32.5843 36.4438 32.7079C36.426 32.6905 36.8506 32.3253 36.8858 32.3002ZM46.9352 20.494C46.9468 20.3827 46.8301 20.7103 46.834 20.6325C46.8389 20.5828 46.9019 20.343 46.8943 20.264C46.893 20.2418 46.8055 20.479 46.7923 20.5505C46.7751 20.6525 46.8341 20.5616 46.8112 20.6733C46.734 21.0373 46.6033 21.3633 46.4735 21.7046C46.4617 21.736 46.5805 21.5033 46.4779 21.7702C46.4616 21.8114 46.3255 22.0466 46.1807 22.3614C45.9489 23.1249 45.5386 23.569 44.9602 24.4481C44.9948 24.4293 45.474 23.7972 45.4933 23.7607C46.0088 23.0498 46.6783 21.6974 46.8447 20.9031C46.8936 20.7012 46.843 20.7932 46.8615 20.7066C46.8747 20.638 46.9102 20.7298 46.9352 20.494ZM19.9181 37.2728C20.0249 37.3396 20.425 37.3607 20.6847 37.393C20.6003 37.3377 20.1618 37.3193 19.9181 37.2728ZM41.501 28.2494C41.5929 28.1592 41.8978 27.8839 41.9103 27.8497C41.9281 27.8053 41.4964 28.2071 41.501 28.2494ZM8.65023 10.6757C8.65774 10.666 8.8821 10.4644 8.89203 10.4584C9.11782 10.3071 8.44655 10.9111 8.65023 10.6757ZM14.7187 6.64816C14.927 6.54111 15.1345 6.42801 15.2243 6.43229C15.0832 6.48889 14.7067 6.68511 14.7187 6.64816ZM24.4829 3.7368C24.4635 3.71963 24.5411 3.70184 24.6514 3.68709C24.657 3.68661 24.6734 3.68422 24.6789 3.68364C24.8754 3.65328 25.1934 3.63111 25.2798 3.62493C25.2463 3.64509 24.8975 3.70493 24.6853 3.7311C24.6796 3.7317 24.6627 3.73416 24.657 3.73465C24.5652 3.74398 24.4947 3.74721 24.4829 3.7368ZM37.9178 31.5771C37.5736 31.8687 37.6989 31.8686 37.457 32.0272C37.4173 32.0529 37.1921 32.0221 37.6104 31.7475C37.6855 31.6981 37.447 31.9563 37.9178 31.5771ZM45.9154 12.0372C45.9883 12.1157 46.1009 12.4229 46.1706 12.627C46.1323 12.5938 45.9789 12.1747 45.9154 12.0372ZM22.5642 37.5855C22.7663 37.6525 23.6631 37.6292 23.4382 37.5917C23.4323 37.5916 22.6796 37.597 22.5642 37.5855ZM3.68801 19.8445C3.70435 19.4707 3.57558 20.2346 3.59396 20.473C3.60077 20.3659 3.68497 19.8701 3.68801 19.8445ZM22.0702 4.11945C22.0891 4.11307 22.4885 4.03448 22.5055 4.03376C22.8398 4.00704 21.71 4.2303 22.0702 4.11945ZM12.5458 7.73144C12.6537 7.6247 13.5072 7.17659 13.7169 7.10826C13.5494 7.24082 12.4085 7.85368 12.5458 7.73144ZM39.2982 30.3458C39.0584 30.5595 38.8249 30.7504 38.593 30.9332C38.6226 30.8719 39.2592 30.3538 39.2982 30.3458ZM23.5422 3.83862C23.564 3.83532 23.5855 3.83501 23.6062 3.83205C23.5845 3.83433 23.5631 3.83642 23.5422 3.83862ZM44.2799 25.4181C44.4497 25.2286 44.3762 25.2377 44.3655 25.2488C44.2337 25.3855 44.0853 25.6327 44.2799 25.4181ZM20.1982 37.3864C20.2719 37.4426 20.7318 37.4643 20.9652 37.4994C20.9051 37.4578 20.3973 37.409 20.1982 37.3864ZM42.7125 7.62671C42.5156 7.38582 43.488 8.16475 43.6354 8.38798C43.635 8.41306 42.7515 7.65106 42.7125 7.62671ZM3.49206 20.9773C3.47342 20.9884 3.46453 21.1279 3.46539 21.2525C3.4659 21.3818 3.47578 21.4925 3.48715 21.434C3.4925 21.4068 3.49705 21.3347 3.50017 21.2546C3.5051 21.1214 3.50666 20.9689 3.49206 20.9773ZM44.0403 8.85838C44.1257 8.93826 44.2714 9.16889 44.1942 9.1095C44.0958 9.03319 44.0185 8.83795 44.0403 8.85838ZM47.1162 18.7166C47.1262 18.6743 47.1018 17.9366 47.0608 18.2387C47.0324 18.4465 47.0821 18.482 47.0811 18.5315C47.084 18.5819 46.9656 19.716 47.1162 18.7166ZM36.4257 4.39994C36.6905 4.46072 36.9992 4.57139 37.2678 4.65883C37.1525 4.64136 36.5298 4.45725 36.4257 4.39994ZM3.7695 18.9461C3.72218 18.9987 3.45573 20.7338 3.64501 19.7519C3.64951 19.691 3.84707 18.7665 3.7695 18.9461ZM37.9178 31.5771C37.9612 31.5403 38.0121 31.4988 38.072 31.4518C38.0139 31.5001 37.9624 31.5411 37.9178 31.5771ZM41.6892 28.1906C41.6333 28.281 42.009 27.9266 42.1051 27.8111C42.117 27.7559 41.6977 28.1786 41.6892 28.1906ZM37.2995 4.63122C37.4593 4.66783 37.7335 4.77901 37.9228 4.84684C37.8831 4.85599 37.3599 4.67479 37.2995 4.63122ZM25.7861 3.46144C26.1159 3.44433 26.5243 3.4094 26.5265 3.37994C26.5336 3.38407 26.5498 3.38786 26.5765 3.391C26.6029 3.39371 26.956 3.35819 27.1139 3.36109C28.0284 3.33554 23.5758 3.69164 26.1482 3.37555C26.026 3.40354 25.9053 3.43218 25.7861 3.46144ZM11.4064 8.3618C11.2307 8.43299 10.8286 8.7662 10.9477 8.70103C11.0289 8.65333 11.5805 8.28881 11.4064 8.3618ZM17.8614 5.17964C17.8041 5.19196 17.3295 5.39135 17.3243 5.41445C17.6048 5.3298 18.115 5.12204 17.8614 5.17964ZM10.2177 9.14881C10.1214 9.21434 10.0392 9.35059 10.0516 9.34425C10.1573 9.28875 10.393 9.0576 10.2177 9.14881ZM38.7259 31.0845C38.8748 30.9776 39.2815 30.5659 39.3512 30.4531C39.3737 30.4431 39.4276 30.4085 39.5219 30.3404C39.5216 30.3407 39.5214 30.3409 39.5211 30.3411C39.6712 30.2663 43.0619 27.113 40.7461 29.181C40.6729 29.245 40.7947 29.1804 40.4982 29.4435C40.4785 29.4608 40.45 29.4489 40.3892 29.5024C40.2493 29.6278 39.4976 30.2762 39.3598 30.426C39.3551 30.4232 39.3421 30.4281 39.3183 30.443C39.107 30.5764 38.6118 31.1672 38.7259 31.0845ZM18.8302 4.84856C18.7282 4.86979 18.415 4.98322 18.3928 5.01708C18.549 4.97625 19.0684 4.79789 18.8302 4.84856ZM3.65917 18.9793C3.59615 19.1731 3.54863 19.6815 3.59447 19.5331C3.6183 19.4412 3.72752 18.7562 3.65917 18.9793ZM15.7541 6.01376C16.8817 5.56974 16.0194 5.89848 16.1765 5.79292C16.0352 5.86545 15.8924 5.93995 15.7541 6.01376ZM34.2251 34.8278C34.3844 34.7 34.2504 34.9115 34.0566 35.0299C33.9956 35.067 34.1361 34.8995 34.2251 34.8278ZM27.7664 41.8033C27.9154 41.6663 27.416 42.4735 27.5586 42.1302C27.5643 42.114 27.7559 41.8137 27.7664 41.8033ZM32.1857 36.7285C32.2579 36.6021 32.3196 36.5365 32.6179 36.2769C32.1968 36.6817 32.619 36.3426 32.1857 36.7285ZM26.5226 3.37555C26.5249 3.37715 26.5267 3.37831 26.5265 3.37994C26.5241 3.37852 26.5229 3.37709 26.5226 3.37555ZM9.35012 9.85104C9.21181 9.91741 8.9003 10.1921 9.01786 10.1387C9.02866 10.1328 9.32008 9.91019 9.35012 9.85104ZM39.3512 30.4531C39.3313 30.4619 39.3364 30.4517 39.3598 30.426C39.3642 30.4286 39.3606 30.438 39.3512 30.4531ZM11.1225 8.47921C11.1247 8.50845 11.6617 8.16577 11.6832 8.15057C11.9673 7.91288 11.3375 8.32726 11.1225 8.47921ZM3.30216 23.093C3.30619 23.1252 3.3684 22.9136 3.33839 22.784C3.31476 22.6835 3.28583 22.9721 3.30216 23.093ZM31.2283 37.6729C31.0684 37.8306 30.849 38.0529 30.7851 38.0706C30.8916 37.9682 31.2138 37.6521 31.2283 37.6729ZM28.0007 41.5108C28.11 41.2594 28.4838 40.7205 28.7258 40.4196C28.7702 40.4355 28.1201 41.2801 28.0007 41.5108ZM38.2784 31.4466C38.293 31.437 38.7054 31.1003 38.6276 31.1217C38.5146 31.1529 38.1525 31.5305 38.2784 31.4466ZM3.32795 22.1285C3.30766 21.906 3.22529 22.4175 3.28707 22.6437C3.31619 22.7614 3.32888 22.1679 3.32795 22.1285ZM8.3514 10.6773C8.15126 10.8948 8.70617 10.418 8.7606 10.3251C8.65704 10.4136 8.42205 10.5994 8.3514 10.6773ZM17.0276 5.38571C16.0945 5.63735 16.6527 5.62451 16.8031 5.54676C16.8246 5.53549 17.0503 5.37943 17.0276 5.38571ZM25.5362 38.363C25.7248 38.4438 25.0753 38.0467 24.9566 38.0578C24.8962 38.0505 25.4274 38.3 25.5362 38.363ZM31.1652 3.36759C31.1252 3.36483 31.0856 3.36217 31.0464 3.35958C31.0759 3.36005 31.1146 3.36238 31.1652 3.36759ZM6.44791 12.5642C6.969 12.143 6.843 12.1314 6.87889 12.0864C6.95882 11.9932 7.175 11.8028 7.32585 11.6271C7.16006 11.8351 6.99967 12.046 6.84471 12.2598C6.96634 12.0904 8.25057 10.8067 8.27638 10.7772C8.29094 10.7135 7.89028 11.1236 7.87806 11.1349C7.85824 11.1489 7.72774 11.1472 7.68812 11.1832C7.61133 11.2325 6.6021 12.3745 6.44791 12.5642ZM15.187 6.17156C15.3319 6.11814 15.387 6.13483 15.4485 6.09763C15.4694 6.08499 15.4585 6.05061 15.5307 6.00869C15.416 6.06219 15.3014 6.11647 15.187 6.17156ZM5.87292 13.5851C5.73174 13.7119 6.21284 13.0427 6.23646 13.0274C6.34198 12.9306 5.98212 13.4793 5.87292 13.5851ZM10.8419 8.63407C10.8135 8.64809 10.282 9.01509 10.3019 9.03315C10.4471 8.94287 11.1579 8.45185 10.8419 8.63407ZM15.6235 5.96537C15.8338 5.87714 16.2535 5.74153 16.1862 5.71148C16.1858 5.71161 16.1855 5.71174 16.1852 5.71188C15.9969 5.79469 15.8082 5.8798 15.6235 5.96537ZM3.24143 21.3513C3.13905 21.7576 3.24248 21.5916 3.29465 21.2422C3.29672 21.2287 3.29873 21.215 3.30066 21.2011C3.28133 21.1301 3.26992 21.1773 3.25995 21.2401C3.25376 21.2796 3.2482 21.3248 3.24143 21.3513ZM3.15043 22.6834C3.12607 22.8124 3.21453 23.9927 3.25183 23.8057C3.25942 23.7451 3.17963 23.0688 3.18484 23.0336C3.18812 22.9849 3.24466 23.2046 3.2238 22.8348C3.20707 22.8574 3.15474 22.6429 3.15043 22.6834ZM3.17032 21.701C3.09131 22.1183 3.2128 22.2106 3.2194 21.9002C3.22278 21.7784 3.18204 21.6414 3.17032 21.701ZM3.32272 20.0101C3.29035 20.1578 3.22832 20.54 3.24588 20.8176C3.28062 20.4525 3.32542 20.1017 3.38442 19.7374C3.36833 19.6924 3.34989 19.8815 3.32259 20.0111C3.32263 20.0108 3.32268 20.0105 3.32272 20.0101ZM27.0442 44.4166C27.1719 44.0162 26.9712 44.9594 26.9746 45.0003C26.9281 45.1167 26.9796 44.5961 27.0442 44.4166ZM26.933 41.4082C26.9702 41.5029 26.9636 41.5805 27.0848 41.7651C27.0138 41.553 26.9349 41.3423 26.8458 41.1328C26.6902 41.024 26.894 41.3044 26.933 41.4082ZM27.0634 42.2785C27.0483 42.2519 27.0146 42.4495 26.9176 42.0629C26.8617 41.7918 27.4947 43.1026 27.5045 43.3763C27.3945 43.1091 27.1897 42.5099 27.0634 42.2785ZM27.3598 44.788C27.3565 44.8039 27.2217 44.298 27.2086 44.2362C27.1597 43.918 27.3969 44.6909 27.3598 44.788ZM26.9081 43.1678C26.9726 43.407 26.7699 42.8993 26.7157 42.7466C26.7312 42.7225 26.8998 43.1292 26.9081 43.1678ZM30.1688 41.8745C30.3881 41.7105 30.3998 41.416 30.1789 41.7651C30.1684 41.7818 30.159 41.8813 30.1688 41.8745ZM27.1256 44.3173C27.0841 44.0727 27.2391 44.5976 27.2577 44.7578C27.2411 44.7744 27.1344 44.3551 27.1256 44.3173ZM30.4304 41.8385C30.6881 41.5941 30.4638 41.5748 30.4296 41.6058C30.2909 41.7297 29.9851 42.2827 29.9343 42.3987C30.4484 41.6101 30.3121 41.9591 30.4304 41.8385ZM31.3932 40.4954C31.6009 40.2323 30.9987 40.8479 30.9391 41.0083C31.0404 40.8822 31.3373 40.5652 31.3932 40.4954ZM32.8522 39.0658C32.9836 38.9452 33.3866 38.5813 33.4341 38.496C33.29 38.6386 32.8833 38.9909 32.8522 39.0658ZM33.2084 38.8454C33.442 38.6778 33.4098 38.5442 33.1965 38.7975C33.1883 38.8073 33.1993 38.851 33.2084 38.8454ZM34.411 37.7815C34.5808 37.6911 34.661 37.4636 34.4353 37.6635C34.3689 37.7227 34.3923 37.7912 34.411 37.7815ZM30.8632 41.6158C31.0431 41.4235 31.1862 41.1196 30.8325 41.54C30.9474 41.3762 31.0548 41.2268 31.1729 41.0685C30.6764 41.5879 30.7995 41.6326 30.6691 41.7893C30.4896 42.0126 30.4297 41.9381 30.4398 41.8745C30.343 42.088 29.7652 42.9181 29.5331 43.4086C29.7709 42.9951 30.2581 42.333 30.573 41.9496C30.6615 41.8395 30.7266 41.7133 30.8062 41.6176C30.9346 41.4643 30.8529 41.6265 30.8625 41.6166C30.8628 41.6163 30.863 41.6161 30.8632 41.6158ZM35.996 36.3784C36.4515 36.0543 36.1102 36.1966 35.8858 36.4192C35.8767 36.4293 35.9846 36.3865 35.996 36.3784ZM26.9385 45.0669C26.8305 44.396 27.0546 44.8435 26.5226 43.5019C26.7822 44.0523 26.5811 43.5169 26.6452 43.6199C26.698 43.7028 26.7865 44.0491 26.767 43.8379C26.8204 44.1105 27.0981 45.2587 27.0817 45.3059C27.0816 45.3054 27.0816 45.305 27.0815 45.3045C27.0813 45.3346 26.9645 45.2803 26.9385 45.0669ZM33.066 39.2801C33.2926 39.2552 33.1865 39.0462 33.5269 38.8817C33.7518 38.4281 32.5812 39.7957 32.341 39.8542C33.7121 38.4858 31.3532 40.6652 32.4427 39.8533C31.621 40.5989 32.2112 40.1334 32.1129 40.2753C32.0042 40.4301 31.5714 40.8624 31.632 40.8751C31.6322 40.8749 31.6324 40.8746 31.6327 40.8744C31.875 40.5955 32.1367 40.3085 32.3983 40.0321C32.0606 40.2202 32.6198 39.687 32.8797 39.5612C32.9419 39.4668 33.0054 39.3717 33.066 39.2801ZM31.4912 40.7734C31.5141 40.7462 32.062 40.1269 32.013 40.1496C31.9169 40.2208 31.1505 41.1069 31.4912 40.7734ZM29.4819 43.6617C29.604 43.4072 29.8315 43.0578 29.8819 42.8979C29.7262 43.1456 29.5109 43.5006 29.4819 43.6617ZM40.3916 32.7285C40.6681 32.4419 39.7391 33.2352 40.033 33.0348C40.0476 33.0249 40.3781 32.7427 40.3916 32.7285ZM33.6836 38.6569C33.9973 38.421 33.7717 38.4447 33.582 38.673C33.5711 38.6862 33.6688 38.6681 33.6836 38.6569ZM26.8007 44.5322C26.7712 44.5131 26.5112 43.5556 26.4393 43.3945C26.5159 43.4715 26.8563 44.5469 26.8007 44.5322ZM29.4044 44.1404C29.6985 43.7132 29.9586 43.0089 30.0128 42.9332C30.06 42.8633 30.0349 43.0033 30.0463 42.9876C30.0622 42.9512 30.5562 42.2158 30.5864 42.1811C30.6023 42.1547 30.4478 42.24 30.5374 42.0789C30.3173 42.394 29.4908 43.7397 29.4959 43.8308C29.4794 43.8881 29.7309 43.5051 29.4047 44.1396C29.4046 44.1399 29.4045 44.1401 29.4044 44.1404ZM30.1365 42.7684C29.9912 42.9342 30.3222 42.4197 30.4283 42.2983C30.6468 42.0337 30.1442 42.7498 30.1365 42.7684ZM31.0555 41.5628C31.1013 41.5128 31.5331 41.0128 31.5495 40.9457C31.2987 41.1587 30.9396 41.6789 31.0555 41.5628ZM36.4791 36.2724C36.6119 36.1516 37.0068 35.8469 37.0092 35.8053C36.8736 35.9272 36.4804 36.2312 36.4791 36.2724ZM25.2804 41.6495C25.3992 41.8632 25.0686 41.4065 24.9733 41.2922C24.9851 41.2667 25.2726 41.6252 25.2804 41.6495ZM33.9301 38.8208C33.9982 38.7566 35.5875 37.2858 35.8116 37.0801C35.5686 37.2535 33.9755 38.6939 33.9266 38.7674C33.9086 38.7889 33.9195 38.8288 33.9301 38.8208ZM30.8642 42.144C30.7894 42.317 30.6806 42.3778 30.6646 42.3987C30.5194 42.5841 30.2789 42.9706 30.2982 42.8636C30.5161 42.5437 31.0167 41.7973 30.8642 42.144ZM36.7274 36.3235C37.2761 35.8284 36.1729 36.7188 36.343 36.6339C36.355 36.627 36.6703 36.3748 36.7274 36.3235ZM33.7635 38.9962C33.6583 39.1277 32.1422 40.6041 31.9373 40.8608C32.0858 40.5981 32.2948 40.4464 32.5718 40.1543C32.6467 40.0755 32.6069 40.0772 32.6149 40.0687C32.7463 39.9322 32.6699 40.056 32.7522 39.9726C32.798 39.915 33.8863 38.8033 33.7635 38.9962ZM30.8265 42.2457C30.7653 42.3446 30.1019 43.3721 30.0917 43.4126C29.8493 43.6974 30.7313 42.3101 30.8265 42.2457ZM33.9481 38.9025C33.8259 39.1195 33.0403 39.8129 33.5286 39.2849C33.5755 39.2344 33.8104 39.0552 33.9481 38.9025ZM36.7156 36.4304C36.7435 36.4088 37.3402 35.9161 37.3358 35.888C37.242 35.9549 36.3863 36.6817 36.7156 36.4304ZM36.4684 36.7539C36.4819 36.7415 36.3149 36.8237 36.5915 36.5919C36.6148 36.5726 36.6904 36.5767 37.0224 36.2652C37.0898 36.202 37.1759 36.0818 37.1666 36.0869C36.7506 36.3323 35.7814 37.3879 36.4684 36.7539ZM30.8475 42.2894C30.9042 42.2509 30.8653 42.4134 30.7517 42.5147C30.7028 42.5586 30.7404 42.4352 30.8475 42.2894ZM38.5963 34.8485C38.278 35.1731 39.3645 34.2558 39.4132 34.2C39.3623 34.2108 38.6276 34.8168 38.5963 34.8485ZM24.7075 41.4256C24.7077 41.4258 24.7079 41.426 24.708 41.4261C24.5385 41.2312 24.6714 41.3249 24.6642 41.3149C24.3137 40.9087 24.3665 41.0887 24.303 41.0424C24.1698 40.9744 24.2348 40.8969 24.0111 40.8291C24.3803 40.9591 24.0564 40.8103 24.0597 40.7792C24.0789 40.6206 24.5091 41.1091 24.6975 41.3063C24.7261 41.3279 24.5695 41.1127 24.6428 41.1677C24.8982 41.3356 25.3367 42.2821 24.7075 41.4256ZM30.6911 42.6104C30.6124 42.7614 29.99 43.7294 30.1192 43.4518C30.1197 43.4039 30.7665 42.3864 30.6911 42.6104ZM26.4468 0.414479C26.7774 0.358941 26.0086 0.368565 25.8563 0.410099C25.7867 0.428471 26.3025 0.437599 26.4468 0.414479ZM21.0138 1.04696C20.629 1.14081 20.2478 1.38079 20.7287 1.2429C20.7797 1.22803 21.0624 1.05597 21.0138 1.04696ZM46.1298 6.54845C45.8624 6.18675 45.8116 6.27305 46.0363 6.50948C46.115 6.59381 46.1381 6.55998 46.1298 6.54845ZM31.3023 0.378541C31.2631 0.371395 30.7754 0.345219 30.7926 0.368718C30.9717 0.390988 31.5699 0.421319 31.3023 0.378541ZM46.2353 6.64455C46.0445 6.46028 46.3016 6.83961 46.5606 7.04715C46.4508 6.92307 46.2554 6.66327 46.2353 6.64455ZM34.6763 38.5102C34.7952 38.3479 35.205 37.9926 35.4385 37.7762C35.4945 37.7925 34.8385 38.347 34.6763 38.5102ZM22.6972 0.768994C22.3311 0.868216 23.1382 0.758893 23.0592 0.726285C23.0498 0.724763 22.707 0.765311 22.6972 0.768994ZM50.1531 19.7309C50.1449 19.4462 50.0349 20.3411 50.1067 20.0982C50.1104 20.0858 50.1542 19.7461 50.1531 19.7309ZM49.0512 23.8311C49.168 23.6403 49.5424 22.7229 49.3685 23.0687C49.3448 23.1306 49.0389 23.8053 49.0512 23.8311ZM24.2715 41.0641C24.287 41.1335 24.0242 40.9474 23.9932 40.9322C23.9755 40.9154 24.2435 40.9545 24.2715 41.0641ZM43.9946 4.60845C43.8095 4.47366 43.3313 4.12459 43.2287 4.09135C43.4659 4.23771 44.0235 4.69464 43.9946 4.60845ZM24.393 0.523041C24.3494 0.521283 24.3022 0.521171 24.2534 0.522474L24.283 0.518757C23.9606 0.520597 23.5386 0.593514 23.6721 0.638947C24.2619 0.555629 23.6766 0.576391 24.2844 0.530578L24.255 0.534268C24.2953 0.530795 24.341 0.527048 24.393 0.523041ZM47.2262 7.76824C47.1186 7.61389 46.9752 7.54359 46.9855 7.56229C47.0831 7.74057 47.3135 7.93511 47.2262 7.76824ZM35.7503 0.995936C35.7475 0.963146 35.1926 0.860162 35.2624 0.895158C35.2855 0.90544 35.7534 1.02058 35.7503 0.995936ZM39.8966 33.9998C40.1002 33.8611 39.5505 34.3686 39.3622 34.4871C39.2507 34.522 39.871 34.018 39.8966 33.9998ZM49.4848 12.3796C49.5402 12.3895 49.2261 11.52 49.306 11.8768C49.3275 11.9645 49.4687 12.3736 49.4848 12.3796ZM50.1007 21.0303C50.1291 20.6836 50.0295 21.2367 49.889 21.7383C49.7502 22.25 49.5797 22.7268 49.7294 22.3964C49.7695 22.3545 50.1148 21.1036 50.1007 21.0303ZM48.4147 25.1366C48.4772 25.0442 48.574 25.1819 48.2905 25.516C48.2533 25.5601 48.3649 25.3131 48.3318 25.3477C48.3187 25.3701 47.7673 26.1489 47.7397 26.1836C47.7161 26.2233 47.7868 26.2072 47.7639 26.2483C47.7394 26.2954 47.3649 26.7335 47.1747 26.9716C46.8245 27.4136 46.8149 27.4797 46.786 27.5167C46.7008 27.62 46.5332 27.7763 46.3552 27.9818C45.4703 29.0212 44.044 30.4776 43.2239 31.1196C43.9259 30.509 44.5351 29.8651 45.1807 29.1746C45.0541 29.4352 46.0794 28.1191 45.4868 28.8976C45.819 28.6132 48.282 25.5045 48.4141 25.1376C48.4143 25.1373 48.4145 25.1369 48.4147 25.1366ZM19.4686 1.3877C19.6896 1.27141 18.481 1.62301 18.3933 1.71728C18.5585 1.67236 19.436 1.39987 19.4686 1.3877ZM25.1875 0.205819C25.3038 0.186092 25.3985 0.0713634 26.0338 0.0720139C26.0344 0.0719699 26.035 0.071926 26.0355 0.071882C26.2154 0.0732489 26.0139 0.112757 26.0472 0.118984C26.0587 0.120938 26.6202 0.131932 26.1577 0.172232C25.4406 0.240413 26.0848 0.102268 25.7004 0.132906C25.6498 0.135161 24.9448 0.259687 24.9822 0.269284C24.9873 0.269933 25.2053 0.235368 25.2394 0.237106C25.3746 0.242251 25.3127 0.279845 25.3317 0.279445C25.3906 0.272647 26.5289 0.128841 26.697 0.171082C26.7466 0.171896 24.8989 0.358188 24.813 0.373748C24.7661 0.374229 24.7756 0.285864 24.7266 0.283022C24.712 0.282208 24.4572 0.322077 24.2315 0.35995L24.2641 0.355864C24.0961 0.380657 23.9359 0.40536 23.8936 0.407492C23.8647 0.408938 23.8425 0.409379 23.8261 0.40949C23.9442 0.419362 23.2562 0.514432 23.2766 0.482602C23.2843 0.468471 23.7558 0.407464 23.7753 0.407923C23.7829 0.407786 23.7895 0.408116 23.7957 0.408133C23.7539 0.400551 23.9937 0.359783 24.2601 0.321299L24.2269 0.325462C24.6168 0.260676 25.1106 0.197104 24.8986 0.191065C25.3657 0.113811 24.8423 0.268237 25.1875 0.205819ZM27.3982 5.50747e-05C27.3511 0.0108955 27.3041 0.0218265 27.2573 0.0328469C28.066 -0.0227249 28.9968 0.0139732 29.9252 0.046259C30.1624 0.0549442 29.8929 -0.0112816 30.2014 0.0163252C30.4468 0.038715 30.718 0.105999 30.583 0.110112C30.5493 0.110535 30.0519 0.0529771 29.7957 0.04959C29.05 0.0401485 29.2402 0.095979 29.196 0.0954518C29.1519 0.0955931 28.6766 0.05782 28.4227 0.0622143C27.7858 0.0738174 27.4898 0.107137 26.6064 0.117649C27.1147 0.0582809 26.8363 0.00274944 27.3982 5.50747e-05ZM50.319 16.1494C50.353 16.1776 50.3647 16.728 50.3761 16.9317C50.3461 16.9002 50.3416 16.3454 50.319 16.1494ZM3.44756 32.7365C3.58598 32.8499 2.82501 31.7902 2.99475 32.0912C3.02965 32.1608 3.34535 32.6096 3.44756 32.7365ZM0.818303 27.5339C0.7542 27.3707 0.924602 28.054 0.963556 28.0386C0.973335 28.0349 0.824694 27.5563 0.818303 27.5339ZM37.7796 1.29023C37.8103 1.29683 38.244 1.44494 38.2566 1.45276C38.5301 1.59027 37.1015 1.1197 37.7796 1.29023ZM0.126424 20.6314C0.103814 21.2239 0.289189 19.4533 0.194358 19.9894C0.187247 20.0148 0.125104 20.6016 0.126424 20.6314ZM0.476812 18.1701C0.444469 18.3154 0.314336 18.9282 0.329753 18.9409C0.348874 18.9554 0.497836 18.2536 0.476812 18.1701ZM47.4521 7.76208C47.4608 7.67183 47.9152 8.40085 48.0728 8.65908C48.065 8.74514 47.6405 7.99925 47.4521 7.76208ZM43.6244 3.98027C45.099 4.99407 45.5602 5.55964 45.463 5.4725C45.3555 5.40513 44.6585 4.7401 43.4338 3.88294C43.45 3.85115 43.4373 3.85489 43.6244 3.98027ZM47.0024 7.11303C46.8938 7.0327 46.6376 6.70749 46.4527 6.49896C46.5058 6.51746 46.8757 6.95995 47.0024 7.11303ZM4.40244 33.9609C4.20941 33.8359 3.59571 33.0368 3.72801 33.1594C3.75203 33.1962 4.47244 34.0094 4.40244 33.9609ZM38.0687 1.32992C38.0093 1.2498 38.9863 1.59956 39.0554 1.64368C39.341 1.79443 38.1544 1.33561 38.0687 1.32992ZM49.736 12.341C49.8351 12.5189 49.954 13.0345 50.0298 13.373C49.9604 13.2234 49.8262 12.6353 49.736 12.341ZM48.858 9.97383C48.8725 9.99586 49.0715 10.4374 49.077 10.4595C49.2064 10.84 48.636 9.58026 48.858 9.97383ZM24.6201 41.9615C24.6133 41.9524 24.4832 41.7835 24.4794 41.7789C24.3914 41.6024 24.7854 42.1174 24.6201 41.9615Z" fill="black"/>
<ellipse cx="14.9741" cy="24.1626" rx="2.5" ry="3" fill="black"/>
<circle cx="24.4741" cy="21.1626" r="3" fill="black"/>
<ellipse cx="34.9741" cy="18.1626" rx="3.5" ry="3" fill="black"/>
</svg>
